<svg width="141" height="140" viewBox="0 0 141 140" fill="none" xmlns="http://www.w3.org/2000/svg">
<g filter="url(#filter0_d_130_520)">
<path d="M126.829 32.7778C126.371 32.016 125.896 31.268 125.397 30.5366C118.773 20.8049 107.747 14.1422 97.0323 11.1256C92.3375 9.80075 87.5186 9.10799 82.7079 8.93135C51.1501 7.78595 39.5553 33.8045 29.3875 40.514C19.2196 47.2236 3.6146 58.6831 5.5742 82.7558C7.05908 101.06 17.4726 118.561 36.489 126.524C38.5838 127.404 40.7835 128.169 43.0881 128.801C47.3744 129.979 52.0195 130.722 57.0261 130.943C71.403 131.583 83.0778 128.116 94.4959 119.389C97.151 117.361 99.7896 115.073 103.234 114.822C105.737 114.639 108.111 115.539 105.494 117.96C102.42 120.802 105.966 126.397 113.777 122.511C126.818 116.019 132.184 102.015 134.712 87.7763C137.814 70.2972 136.31 48.5594 126.829 32.7778Z" fill="#FF81AE"/>
<path opacity="0.7" d="M126.829 32.7778C126.371 32.016 125.896 31.268 125.397 30.5366C118.773 20.8049 107.747 14.1422 97.0323 11.1256C92.3375 9.80075 87.5186 9.10799 82.7079 8.93135C51.1501 7.78595 39.5553 33.8045 29.3875 40.514C19.2196 47.2236 3.6146 58.6831 5.5742 82.7558C7.05908 101.06 17.4726 118.561 36.489 126.524C38.5838 127.404 40.7835 128.169 43.0881 128.801C47.3744 129.979 52.0195 130.722 57.0261 130.943C71.403 131.583 83.0778 128.116 94.4959 119.389C97.151 117.361 99.7896 115.073 103.234 114.822C105.737 114.639 108.111 115.539 105.494 117.96C102.42 120.802 105.966 126.397 113.777 122.511C126.818 116.019 132.184 102.015 134.712 87.7763C137.814 70.2972 136.31 48.5594 126.829 32.7778Z" fill="white"/>
<g opacity="0.3">
<path d="M135.692 14.8626H113.871V41.5822H135.692V14.8626Z" fill="#ADADAD" stroke="black" stroke-linecap="round" stroke-linejoin="round"/>
<path d="M134.563 16.2454H115V40.1994H134.563V16.2454Z" fill="white" stroke="black" stroke-linecap="round" stroke-linejoin="round"/>
<path d="M129.156 22.8666H120.407V33.5782H129.156V22.8666Z" fill="#ADADAD" stroke="black" stroke-linecap="round" stroke-linejoin="round"/>
</g>
<g opacity="0.3">
<path d="M70.9945 9.24875H30.5936V111.471H70.9945V9.24875Z" fill="#ADADAD" stroke="black" stroke-linecap="round" stroke-linejoin="round"/>
<path d="M65.8692 61.5949H51.7242V75.1824H65.8692V61.5949Z" fill="white" stroke="black" stroke-linecap="round" stroke-linejoin="round"/>
<path d="M65.8692 30.9258H51.7242V44.5133H65.8692V30.9258Z" fill="white" stroke="black" stroke-linecap="round" stroke-linejoin="round"/>
<path d="M65.8692 76.9294H51.7242V90.5169H65.8692V76.9294Z" fill="white" stroke="black" stroke-linecap="round" stroke-linejoin="round"/>
<path d="M65.8692 15.4449H51.7242V29.1787H65.8692V15.4449Z" fill="white" stroke="black" stroke-linecap="round" stroke-linejoin="round"/>
<path d="M49.8667 15.4449H35.7217V29.1787H49.8667V15.4449Z" fill="white" stroke="black" stroke-linecap="round" stroke-linejoin="round"/>
<path d="M65.8692 46.2603H51.7242V59.8478H65.8692V46.2603Z" fill="white" stroke="black" stroke-linecap="round" stroke-linejoin="round"/>
<path d="M49.8667 46.2603H35.7217V59.8478H49.8667V46.2603Z" fill="white" stroke="black" stroke-linecap="round" stroke-linejoin="round"/>
<path d="M65.8692 92.2668H51.7242V103.831H65.8692V92.2668Z" fill="white" stroke="black" stroke-linecap="round" stroke-linejoin="round"/>
<path d="M49.8667 76.9294H35.7217V90.5169H49.8667V76.9294Z" fill="white" stroke="black" stroke-linecap="round" stroke-linejoin="round"/>
<path d="M49.8667 92.2668H35.7217V103.831H49.8667V92.2668Z" fill="white" stroke="black" stroke-linecap="round" stroke-linejoin="round"/>
<path d="M49.8667 61.5949H35.7217V75.1824H49.8667V61.5949Z" fill="white" stroke="black" stroke-linecap="round" stroke-linejoin="round"/>
<path d="M49.8667 30.9258H35.7217V44.5133H49.8667V30.9258Z" fill="white" stroke="black" stroke-linecap="round" stroke-linejoin="round"/>
<path d="M32.7381 9.45575V111.38" stroke="black" stroke-linecap="round" stroke-linejoin="round"/>
<path d="M70.9945 111.474H111.395L111.395 9.25152H70.9945L70.9945 111.474Z" fill="#ADADAD" stroke="black" stroke-linecap="round" stroke-linejoin="round"/>
<path d="M90.2676 61.5949H76.1226V75.1824H90.2676V61.5949Z" fill="white" stroke="black" stroke-linecap="round" stroke-linejoin="round"/>
<path d="M90.2676 30.9258H76.1226V44.5133H90.2676V30.9258Z" fill="white" stroke="black" stroke-linecap="round" stroke-linejoin="round"/>
<path d="M90.2676 76.9294H76.1226V90.5169H90.2676V76.9294Z" fill="white" stroke="black" stroke-linecap="round" stroke-linejoin="round"/>
<path d="M90.2676 15.4449H76.1226V29.1787H90.2676V15.4449Z" fill="white" stroke="black" stroke-linecap="round" stroke-linejoin="round"/>
<path d="M106.27 15.4449H92.125V29.1787H106.27V15.4449Z" fill="white" stroke="black" stroke-linecap="round" stroke-linejoin="round"/>
<path d="M90.2676 46.2603H76.1226V59.8478H90.2676V46.2603Z" fill="white" stroke="black" stroke-linecap="round" stroke-linejoin="round"/>
<path d="M106.27 46.2603H92.125V59.8478H106.27V46.2603Z" fill="white" stroke="black" stroke-linecap="round" stroke-linejoin="round"/>
<path d="M90.2676 92.2668H76.1226V103.831H90.2676V92.2668Z" fill="white" stroke="black" stroke-linecap="round" stroke-linejoin="round"/>
<path d="M106.27 76.9294H92.125V90.5169H106.27V76.9294Z" fill="white" stroke="black" stroke-linecap="round" stroke-linejoin="round"/>
<path d="M106.27 92.2668H92.125V103.831H106.27V92.2668Z" fill="white" stroke="black" stroke-linecap="round" stroke-linejoin="round"/>
<path d="M106.27 61.5949H92.125V75.1824H106.27V61.5949Z" fill="white" stroke="black" stroke-linecap="round" stroke-linejoin="round"/>
<path d="M106.27 30.9258H92.125V44.5133H106.27V30.9258Z" fill="white" stroke="black" stroke-linecap="round" stroke-linejoin="round"/>
<path d="M109.254 9.45575V111.38" stroke="black" stroke-linecap="round" stroke-linejoin="round"/>
</g>
<path d="M32.5891 98.4244H18.9326L20.2988 116.635H31.2229L32.5891 98.4244Z" fill="#999999"/>
<path d="M24.9604 61.3355V101.19L26.357 99.7933V76.6121L30.6791 66.3973L26.0893 74.9644L25.9181 62.5968L24.9604 61.3355Z" fill="#999999"/>
<path d="M22.2446 59.5774L14.293 54.5431L19.0623 59.7098L11.3785 57.8551L16.8101 60.5047H7.53655L15.2204 61.6998L6.21175 63.422L13.4981 63.1571L6.74167 65.9392L14.0281 64.7468L4.35703 71.3708L15.8828 65.8067L9.7887 71.9008L15.3529 68.3238L11.3785 75.3452L17.2076 68.5888L14.293 74.6828L19.4625 68.1913V72.6956L21.8471 67.264V70.311L24.2318 63.952V67.1315L25.9181 62.5968L26.3515 61.4348L21.1847 54.4106L22.7745 58.65L21.1847 57.3252L22.2446 59.5774Z" fill="#FF81AE"/>
<path d="M21.2372 72.0415L11.9001 73.2007L18.8663 74.164L11.7511 77.6112L17.6299 76.2091L10.4677 82.099L17.1607 78.1384L11.2957 85.1902L16.7549 80.3574L13.3022 86.7992L18.1736 81.2489L14.9113 92.5097L20.2795 80.8901L19.4432 89.4682L21.469 83.1726L22.8573 91.1186L23.0698 82.1983L24.6899 88.7561L24.5575 80.4623L27.4168 83.9399L25.8105 78.2294L27.7453 80.5837L25.5483 74.1584L27.5686 76.6121L25.9927 72.0415L25.5869 70.8658L17.1386 68.724L21.0578 70.99L18.9878 70.9762L21.2372 72.0415Z" fill="#FF81AE"/>
<path d="M21.2372 72.0415L11.9001 73.2007L18.8663 74.164L11.7511 77.6112L17.6299 76.2091L10.4677 82.099L17.1607 78.1384L11.2957 85.1902L16.7549 80.3574L13.3022 86.7992L18.1736 81.2489L14.9113 92.5097L20.2795 80.8901L19.4432 89.4682L21.469 83.1726L22.8573 91.1186L23.0698 82.1983L24.6899 88.7561L24.5575 80.4623L27.4168 83.9399L25.8105 78.2294L27.7453 80.5837L25.5483 74.1584L27.5686 76.6121L25.9927 72.0415L25.5869 70.8658L17.1386 68.724L21.0578 70.99L18.9878 70.9762L21.2372 72.0415Z" fill="#FF81AE"/>
<path d="M29.7463 57.143L42.0918 55.407L33.5137 59.0392L43.8002 60.996L35.7962 61.2278L46.9908 66.2924L37.0658 63.5352L46.999 70.5346L38.3492 66.2345L44.9842 73.2808L36.8395 67.8629L44.8959 81.1412L34.0215 68.1306L38.0511 78.8146L33.2874 71.4592L34.2506 82.1045L30.9055 70.7664L31.0959 79.7116L28.4022 69.0552L25.943 74.4924L26.0313 66.6347L24.367 70.311L24.9604 61.3355L23.2244 65.1719L23.666 58.7797L23.7792 57.1375L33.8476 51.485L29.6138 55.7354L32.2579 55.004L29.7463 57.143Z" fill="#FF81AE"/>
<path d="M28.1455 54.9682L33.1797 47.0194L28.013 51.7887L29.8677 44.1048L27.2181 49.5365V40.2629L26.0258 47.9467L24.3035 38.9381L24.5685 46.2245L21.7864 39.468L22.9787 46.7544L16.3547 37.0834L21.9189 48.6091L15.8248 42.5151L19.4018 48.0792L12.3803 44.1048L19.1368 49.9339L13.0427 47.0194L19.5343 52.1861H15.0299L20.4616 54.5707H17.4146L23.7736 56.9554H20.5941L25.126 58.6417L26.2907 59.0751L33.3122 53.9083L29.0728 55.4981L30.3976 53.9083L28.1455 54.9682Z" fill="#FF81AE"/>
<path d="M77.98 62.2159C77.3866 58.8322 75.2311 56.8422 75.2311 56.8422C72.6091 55.3187 70.5363 57.0106 70.5363 57.0106C70.5363 57.0106 68.4636 55.3187 65.8416 56.8422C65.8416 56.8422 63.6832 58.8294 63.0926 62.2159C62.4992 65.5997 64.8259 67.0818 64.8259 67.0818H76.2495C76.2495 67.0818 78.5762 65.6025 77.9828 62.2159H77.98Z" fill="#263238" stroke="#263238" stroke-linecap="round" stroke-linejoin="round"/>
<path d="M79.4622 65.9999C79.4622 65.9999 84.3446 65.5583 86.1993 68.7378C88.054 71.9146 93.1738 86.4818 92.7322 87.2767C92.2906 88.0716 89.1139 88.0716 87.9657 87.1884C86.8176 86.3052 81.6094 77.4787 81.6094 77.4787L79.4649 66.0026L79.4622 65.9999Z" fill="white" stroke="#263238" stroke-linecap="round" stroke-linejoin="round"/>
<path d="M80.591 70.0709C80.591 70.0709 82.6582 75.4639 83.1026 79.8219L81.6094 77.4787L80.591 70.0709Z" fill="#263238" stroke="#263238" stroke-linecap="round" stroke-linejoin="round"/>
<path d="M83.155 94.7812C82.2967 92.1316 79.6333 86.7468 79.6333 86.3935C79.6333 86.0403 81.8661 79.5073 81.8661 76.5955C81.8661 73.6837 79.4622 66.0027 79.4622 66.0027C79.4622 66.0027 75.7886 65.401 74.9413 64.4405C74.094 63.48 74.2292 58.6721 74.2292 58.6721L70.528 58.236L66.8269 58.6721C66.8269 58.6721 66.9594 63.48 66.1148 64.4405C65.2675 65.401 61.5939 66.0027 61.5939 66.0027C61.5939 66.0027 59.19 73.6837 59.19 76.5955C59.19 79.5073 61.4228 86.043 61.4228 86.3935C61.4228 86.7441 58.7594 92.1316 57.901 94.7812C57.0427 97.4308 56.2699 102.551 56.1843 104.932L70.5308 113.673L84.8773 104.932C84.7917 102.548 84.0189 97.428 83.1606 94.7812H83.155Z" fill="white" stroke="#263238" stroke-linecap="round" stroke-linejoin="round"/>
<path d="M69.8353 60.9077L73.8842 61.7329L73.7931 58.5645L69.8353 60.9077Z" fill="#263238" stroke="#263238" stroke-linecap="round" stroke-linejoin="round"/>
<path d="M64.8204 67.0818C64.8204 67.0818 68.5519 66.8831 69.3137 66.9383" stroke="#263238" stroke-linecap="round" stroke-linejoin="round"/>
<path d="M76.244 67.0818L72.3138 66.8472C72.3138 66.8472 71.3146 67.0294 71.3146 67.6642" stroke="#263238" stroke-linecap="round" stroke-linejoin="round"/>
<path d="M76.0977 45.391C75.703 44.8114 75.1924 44.3698 74.45 43.9723C73.8097 43.6301 73.1142 43.3844 72.4104 43.1968C70.0174 42.5537 66.032 43.1002 64.6741 45.3992C63.5425 47.3147 63.4569 48.0737 63.6667 49.8566C63.8764 51.6396 65.008 57.8772 66.0154 58.9481C67.0228 60.019 69.2888 60.9077 69.8325 60.9077H70.9227C71.4692 60.9077 73.7324 60.0162 74.7398 58.9481C75.7472 57.8772 76.8788 51.6396 77.0886 49.8566C77.2238 48.7057 77.0886 47.5493 76.6525 46.4674C76.4869 46.0589 76.3075 45.7056 76.095 45.391H76.0977Z" fill="white" stroke="#263238" stroke-linecap="round" stroke-linejoin="round"/>
<path d="M66.5399 51.8107C66.5399 51.8107 67.8067 52.4207 69.1177 51.5761" stroke="#263238" stroke-linecap="round" stroke-linejoin="round"/>
<path d="M69.3992 49.0425C69.3992 49.0425 67.2878 47.8695 66.1176 49.7463" stroke="#263238" stroke-width="2" stroke-linecap="round" stroke-linejoin="round"/>
<path d="M74.5576 51.8107C74.5576 51.8107 73.2908 52.4207 71.9798 51.5761" stroke="#263238" stroke-linecap="round" stroke-linejoin="round"/>
<path d="M71.6955 49.0425C71.6955 49.0425 73.8069 47.8695 74.9772 49.7463" stroke="#263238" stroke-width="2" stroke-linecap="round" stroke-linejoin="round"/>
<path d="M71.6955 50.1685C71.6955 50.1685 70.9917 52.1861 71.2733 52.3738C71.5548 52.5614 71.9301 52.9837 71.7425 53.4998C71.5548 54.016 71.0856 54.1567 70.9448 54.1567" stroke="#263238" stroke-linecap="round" stroke-linejoin="round"/>
<path d="M71.1352 56.5C71.1352 56.7594 70.9558 56.9692 70.7378 56.9692C70.5198 56.9692 70.3404 56.7594 70.3404 56.5C70.3404 56.2405 70.5198 56.0308 70.7378 56.0308C70.9558 56.0308 71.1352 56.2405 71.1352 56.5Z" fill="#263238"/>
<path d="M76.658 46.6495C76.4924 46.219 76.313 45.8464 76.1005 45.5179C75.7058 44.908 75.1952 44.4443 74.4528 44.0275C73.8125 43.6687 73.1169 43.4093 72.4131 43.2106C70.2659 42.6034 67.4479 42.9373 65.6787 44.367C63.7274 45.943 63.1589 49.0921 63.893 51.3967C64.2518 51.2504 64.5002 50.8696 64.4892 50.4832C64.4754 49.956 64.0365 49.5006 64.0503 48.9734C64.0641 48.4656 64.4809 48.0764 64.79 47.6735C65.5352 46.702 65.8057 45.3275 66.8407 44.6734C67.423 44.3035 68.1517 44.2428 68.8389 44.2814C69.413 44.3146 69.9816 44.4167 70.5584 44.425C71.0359 44.4305 71.4609 44.2759 71.9357 44.24C72.8796 44.171 73.8483 44.5381 74.4362 45.2944C75.1649 46.2328 75.5099 47.4527 76.2385 48.2006C76.9671 48.9514 76.3682 49.5144 76.1529 50.312C75.968 50.9993 76.7077 51.4078 76.9147 51.5071C76.9975 50.98 77.0582 50.5328 77.0941 50.2182C77.2293 49.0093 77.0941 47.7922 76.658 46.6523V46.6495Z" fill="#263238" stroke="#263238" stroke-linecap="round" stroke-linejoin="round"/>
<path d="M63.8902 51.394C63.8902 51.394 63.2085 50.7785 62.6455 51.3857C62.0824 51.9956 62.4578 53.3094 62.7862 53.8697C63.1147 54.43 64.6161 55.0896 64.6161 55.0896L63.8902 51.3912V51.394Z" fill="white" stroke="#263238" stroke-linecap="round" stroke-linejoin="round"/>
<path d="M76.9699 51.394C76.9699 51.394 77.6847 50.8144 78.2119 51.4547C78.739 52.095 78.2947 53.3839 77.9359 53.9277C77.5771 54.4714 76.1336 54.9903 76.1336 54.9903L76.9699 51.3912V51.394Z" fill="white" stroke="#263238" stroke-linecap="round" stroke-linejoin="round"/>
<path d="M56.1816 104.932L72.8244 115.616L84.8718 104.932C84.8055 103.075 84.3198 99.5532 83.7015 96.8373C68.9824 98.6865 60.1284 97.4556 57.327 96.9284C56.7198 99.6332 56.245 103.094 56.1788 104.932H56.1816Z" fill="#263238" stroke="#263238" stroke-linecap="round" stroke-linejoin="round"/>
<path d="M57.1531 97.7675C70.3404 100.108 80.7897 98.2394 83.8644 97.5605C83.6463 96.5117 83.4062 95.5429 83.1578 94.7811C82.2994 92.1315 79.636 86.7468 79.636 86.3935C79.636 86.0402 81.8689 79.5073 81.8689 76.5955C81.8689 73.6837 79.4649 66.0026 79.4649 66.0026C79.4649 66.0026 78.4189 65.8315 77.3149 65.5251C77.3756 68.1195 77.0968 77.3324 69.9595 76.4189C62.9684 75.5274 63.559 67.8684 63.9178 65.4755C62.7531 65.8122 61.5994 65.9999 61.5994 65.9999C61.5994 65.9999 59.1955 73.6809 59.1955 76.5927C59.1955 79.5045 61.4283 86.0402 61.4283 86.3907C61.4283 86.7413 58.7649 92.1288 57.9066 94.7784C57.6444 95.5898 57.3877 96.6359 57.1586 97.7647L57.1531 97.7675Z" fill="#FF81AE" stroke="#263238" stroke-linecap="round" stroke-linejoin="round"/>
<path d="M67.9391 97.1768C67.9391 97.1768 74.864 94.8695 75.5402 94.3644C76.2164 93.8565 77.1438 93.437 77.1438 93.437L82.2083 92.5097L81.6177 91.0745C81.6177 91.0745 75.623 92.1729 74.105 92.9319C72.5842 93.6909 67.9391 97.1796 67.9391 97.1796V97.1768Z" fill="#263238" stroke="#263238" stroke-linecap="round" stroke-linejoin="round"/>
<path d="M65.135 85.8388L76.313 81.478" stroke="#263238" stroke-linecap="round" stroke-linejoin="round"/>
<path d="M75.496 83.1119L71.679 84.4753" stroke="#263238" stroke-linecap="round" stroke-linejoin="round"/>
<path d="M61.5939 65.9999C61.5939 65.9999 57.683 65.4699 54.9451 68.2962C52.2072 71.1224 47.529 78.7124 47.529 79.9489C47.529 81.1854 50.8824 81.4503 53.002 80.3905C55.1217 79.3307 59.4466 73.6809 59.4466 73.6809L61.5912 65.9999H61.5939Z" fill="white" stroke="#263238" stroke-linecap="round" stroke-linejoin="round"/>
<path d="M88.5287 82.8193C88.2555 82.8055 86.8065 83.6252 85.5341 84.4477C83.9085 85.4993 79.0592 89.0431 77.0278 89.3936C74.9965 89.7469 74.2016 89.5703 74.2016 89.5703C74.2016 89.5703 71.8059 88.5104 71.1877 88.4221C70.5694 88.3338 69.5427 88.6402 68.7037 88.7809C67.8646 88.9217 67.3043 88.7119 67.3402 88.9548C67.3761 89.2004 67.4092 89.5841 67.9695 89.7248C68.5298 89.8656 69.3688 89.7938 69.3688 89.7938C69.3688 89.7938 70.2079 89.8297 70.3486 89.8628C70.4894 89.8987 64.8562 92.4848 64.8562 92.4848C64.8562 92.4848 64.7872 92.6256 65.0301 92.7636C65.2757 92.9044 67.9364 92.3524 67.9364 92.3524L68.0385 92.6587C68.0385 92.6587 64.4367 94.2319 64.3649 94.3727C64.2959 94.5134 64.3291 94.8281 64.5747 94.8281C64.8203 94.8281 68.24 93.7544 68.24 93.7544L68.3173 94.0939C68.3173 94.0939 65.5904 95.8769 65.5186 95.9818C65.4496 96.0866 65.5186 96.4013 65.7643 96.3654C66.0099 96.3295 68.9107 95.1068 68.9107 95.1068L69.0293 95.3221C69.0293 95.3221 67.4396 96.8567 67.4755 96.9974C67.5113 97.1382 67.7211 97.3121 67.9309 97.1713C68.1406 97.0306 70.5197 95.7361 70.5197 95.7361C70.5197 95.7361 73.9118 94.4058 74.1215 94.3368C74.3313 94.2678 76.6745 92.7967 76.6745 92.7967C76.6745 92.7967 84.3004 91.7838 87.5158 90.1747C90.734 88.5656 92.6825 88.0026 92.7239 87.2712C92.7626 86.5398 91.9925 84.4394 91.9925 84.4394" fill="white"/>
<path d="M88.5287 82.8193C88.2555 82.8055 86.8065 83.6252 85.5341 84.4477C83.9085 85.4993 79.0592 89.0431 77.0278 89.3936C74.9965 89.7469 74.2016 89.5703 74.2016 89.5703C74.2016 89.5703 71.8059 88.5104 71.1877 88.4221C70.5694 88.3338 69.5427 88.6402 68.7037 88.7809C67.8646 88.9217 67.3043 88.7119 67.3402 88.9548C67.3761 89.2004 67.4092 89.5841 67.9695 89.7248C68.5298 89.8656 69.3688 89.7938 69.3688 89.7938C69.3688 89.7938 70.2079 89.8297 70.3486 89.8628C70.4894 89.8987 64.8562 92.4848 64.8562 92.4848C64.8562 92.4848 64.7872 92.6256 65.0301 92.7636C65.2757 92.9044 67.9364 92.3524 67.9364 92.3524L68.0385 92.6587C68.0385 92.6587 64.4367 94.2319 64.3649 94.3727C64.2959 94.5134 64.3291 94.8281 64.5747 94.8281C64.8203 94.8281 68.24 93.7544 68.24 93.7544L68.3173 94.0939C68.3173 94.0939 65.5904 95.8769 65.5186 95.9818C65.4496 96.0866 65.5186 96.4013 65.7643 96.3654C66.0099 96.3295 68.9107 95.1068 68.9107 95.1068L69.0293 95.3221C69.0293 95.3221 67.4396 96.8567 67.4755 96.9974C67.5113 97.1382 67.7211 97.3121 67.9309 97.1713C68.1406 97.0306 70.5197 95.7361 70.5197 95.7361C70.5197 95.7361 73.9118 94.4058 74.1215 94.3368C74.3313 94.2678 76.6745 92.7967 76.6745 92.7967C76.6745 92.7967 84.3004 91.7838 87.5158 90.1747C90.734 88.5656 92.6825 88.0026 92.7239 87.2712C92.7626 86.5398 91.9925 84.4394 91.9925 84.4394" stroke="#263238" stroke-linecap="round" stroke-linejoin="round"/>
<path d="M49.127 76.9378C49.127 76.9378 52.7399 74.9451 57.4733 73.3664C62.2067 71.7876 65.2785 70.7913 68.1434 69.5051C71.0083 68.219 70.5943 68.633 70.7185 68.633C70.8427 68.633 74.3727 69.3809 74.6211 69.4223C74.8695 69.4637 78.4824 70.7499 78.4824 70.7499C78.4824 70.7499 78.5238 71.1225 78.1926 71.2494L77.8614 71.3736C77.8614 71.3736 77.6544 71.7462 77.3204 71.7876C76.9892 71.829 76.1999 71.9532 76.0757 71.9532C75.9515 71.9532 75.4519 72.2016 74.9551 72.3258C74.4583 72.45 73.9173 72.5742 73.6275 72.6156C73.3377 72.657 71.8832 72.7398 71.8832 72.7398C71.8832 72.7398 70.7212 73.0296 69.4737 73.071C68.229 73.1124 66.6502 72.9054 66.6502 72.9054C66.6502 72.9054 54.4842 81.3759 52.9883 82.248C51.4923 83.1202 49.9578 84.0338 48.7103 83.7026C47.4655 83.3714 46.5933 82.9546 46.8003 81.9168C47.0073 80.8791 47.5069 78.7208 49.1243 76.935L49.127 76.9378Z" fill="white" stroke="#263238" stroke-linecap="round" stroke-linejoin="round"/>
<path d="M71.2981 69.4637C71.2981 69.4637 73.9146 69.7949 74.577 69.8363C75.2421 69.8777 78.4796 70.7499 78.4796 70.7499" stroke="#263238" stroke-linecap="round" stroke-linejoin="round"/>
<path d="M71.5078 70.5015L75.4105 70.6698L77.8586 71.3736" stroke="#263238" stroke-linecap="round" stroke-linejoin="round"/>
<path d="M71.4637 71.4564L73.542 71.5834L76.0729 71.956" stroke="#263238" stroke-linecap="round" stroke-linejoin="round"/>
<path d="M76.5007 111.372C76.5007 111.372 80.3454 105.954 83.9665 103.478C87.5876 101.002 95.1307 98.9129 101.341 101.389C107.551 103.864 112.061 109.9 112.577 110.753C113.093 111.603 112.651 113.615 111.911 114.623C111.172 115.63 109.325 116.635 108.362 116.635H63.2692C63.2692 116.635 63.0484 115.785 63.7881 115.086C64.5278 114.391 68.8886 112.92 69.7773 112.456C70.6633 111.993 71.6983 109.205 73.4012 108.664C75.1041 108.123 76.5062 111.372 76.5062 111.372H76.5007Z" fill="#263238" stroke="#263238" stroke-linecap="round" stroke-linejoin="round"/>
<path d="M104.324 116.635H63.3907C63.3907 116.635 63.1699 115.785 63.904 115.086C64.6354 114.391 68.9548 112.92 69.8353 112.456C70.713 111.993 71.7397 109.205 73.4233 108.664C75.1069 108.123 76.4979 111.372 76.4979 111.372C76.4979 111.372 76.9368 111.99 77.6709 112.42C78.4023 112.851 79.625 113.323 79.8679 113.323C80.1108 113.323 85.363 112.636 88.0485 111.344C90.734 110.055 94.6008 107.474 97.7334 107.129C100.866 106.784 103.43 108.333 105.017 109.451" fill="#263238"/>
<path d="M104.324 116.635H63.3907C63.3907 116.635 63.1699 115.785 63.904 115.086C64.6354 114.391 68.9548 112.92 69.8353 112.456C70.713 111.993 71.7397 109.205 73.4233 108.664C75.1069 108.123 76.4979 111.372 76.4979 111.372C76.4979 111.372 76.9368 111.99 77.6709 112.42C78.4023 112.851 79.625 113.323 79.8679 113.323C80.1108 113.323 85.363 112.636 88.0485 111.344C90.734 110.055 94.6008 107.474 97.7334 107.129C100.866 106.784 103.43 108.333 105.017 109.451" stroke="#263238" stroke-linecap="round" stroke-linejoin="round"/>
<path d="M106.237 110.742C106.237 110.742 104.976 112.161 103.756 112.376C102.536 112.591 98.1391 111.904 96.6735 111.559" stroke="#919191" stroke-linecap="round" stroke-linejoin="round"/>
<path d="M79.8651 113.323C80.108 113.323 85.3603 112.636 88.0458 111.344C90.7312 110.055 94.598 107.474 97.7306 107.129C100.863 106.784 103.427 108.333 105.014 109.451" stroke="#919191" stroke-linecap="round" stroke-linejoin="round"/>
<path d="M79.7768 113.312L79.4318 116.635H63.3907C63.3907 116.635 63.1699 115.785 63.904 115.087C64.6354 114.391 68.9548 112.92 69.8353 112.456C70.713 111.993 71.7397 109.205 73.4233 108.664C75.1069 108.123 76.4979 111.372 76.4979 111.372C76.4979 111.372 76.9368 111.99 77.6709 112.42C78.3388 112.812 79.4097 113.24 79.7796 113.312H79.7768Z" fill="white" stroke="#263238" stroke-linecap="round" stroke-linejoin="round"/>
<path d="M68.2924 111.372C68.2924 111.372 64.2684 105.954 60.4761 103.478C56.6839 101.002 48.7903 98.9129 42.2905 101.389C35.7907 103.864 31.0711 109.9 30.5274 110.753C29.9864 111.603 30.4501 113.615 31.2229 114.623C31.9957 115.627 33.9304 116.635 34.9378 116.635H82.1421C82.1421 116.635 82.374 115.785 81.6012 115.086C80.8284 114.391 76.2606 112.92 75.3332 112.456C74.4058 111.993 73.3212 109.205 71.541 108.664C69.7608 108.123 68.2897 111.372 68.2897 111.372H68.2924Z" fill="#263238" stroke="#263238" stroke-linecap="round" stroke-linejoin="round"/>
<path d="M38.8819 116.635H82.1421C82.1421 116.635 82.374 115.785 81.6012 115.086C80.8284 114.391 76.2606 112.92 75.3332 112.456C74.4058 111.993 73.3212 109.205 71.541 108.664C69.7608 108.123 68.2897 111.372 68.2897 111.372C68.2897 111.372 67.826 111.99 67.0504 112.42C66.2749 112.851 64.986 113.323 64.7293 113.323C64.4726 113.323 58.9222 112.636 56.085 111.344C53.2449 110.055 49.1601 107.474 45.8481 107.129C42.5361 106.784 39.8258 108.333 38.1505 109.451" fill="#263238"/>
<path d="M38.8819 116.635H82.1421C82.1421 116.635 82.374 115.785 81.6012 115.086C80.8284 114.391 76.2606 112.92 75.3332 112.456C74.4058 111.993 73.3212 109.205 71.541 108.664C69.7608 108.123 68.2897 111.372 68.2897 111.372C68.2897 111.372 67.826 111.99 67.0504 112.42C66.2749 112.851 64.986 113.323 64.7293 113.323C64.4726 113.323 58.9222 112.636 56.085 111.344C53.2449 110.055 49.1601 107.474 45.8481 107.129C42.5361 106.784 39.8258 108.333 38.1505 109.451" stroke="#263238" stroke-linecap="round" stroke-linejoin="round"/>
<path d="M36.8616 110.742C36.8616 110.742 38.1947 112.161 39.4863 112.376C40.7753 112.591 45.4203 111.904 46.9687 111.559" stroke="#919191" stroke-linecap="round" stroke-linejoin="round"/>
<path d="M64.7293 113.323C64.4726 113.323 58.9222 112.636 56.085 111.344C53.2449 110.055 49.1601 107.474 45.8481 107.129C42.5361 106.784 39.8258 108.333 38.1505 109.451" stroke="#919191" stroke-linecap="round" stroke-linejoin="round"/>
<path d="M64.8231 113.312L65.1875 116.635H82.1394C82.1394 116.635 82.3712 115.785 81.5984 115.087C80.8256 114.391 76.2578 112.92 75.3305 112.456C74.4031 111.993 73.3184 109.205 71.5382 108.664C69.758 108.123 68.2869 111.372 68.2869 111.372C68.2869 111.372 67.8233 111.99 67.0477 112.42C66.3411 112.812 65.2095 113.24 64.8176 113.312H64.8231Z" fill="white" stroke="#263238" stroke-linecap="round" stroke-linejoin="round"/>
<path d="M57.3076 102.23C57.3076 102.23 62.7807 103.768 67.5169 108.38" stroke="#919191" stroke-linecap="round" stroke-linejoin="round"/>
<path d="M83.9692 103.478C83.9692 103.478 79.2 105.426 75.2035 108.255" stroke="#919191" stroke-linecap="round" stroke-linejoin="round"/>
<path d="M8.21829 116.635H133.773" stroke="#263238" stroke-linecap="round" stroke-linejoin="round"/>
</g>
<defs>
<filter id="filter0_d_130_520" x="-2" y="0" width="146" height="146" filterUnits="userSpaceOnUse" color-interpolation-filters="sRGB">
<feFlood flood-opacity="0" result="BackgroundImageFix"/>
<feColorMatrix in="SourceAlpha" type="matrix" values="0 0 0 0 0 0 0 0 0 0 0 0 0 0 0 0 0 0 127 0" result="hardAlpha"/>
<feOffset dy="4"/>
<feGaussianBlur stdDeviation="2"/>
<feComposite in2="hardAlpha" operator="out"/>
<feColorMatrix type="matrix" values="0 0 0 0 0 0 0 0 0 0 0 0 0 0 0 0 0 0 0.25 0"/>
<feBlend mode="normal" in2="BackgroundImageFix" result="effect1_dropShadow_130_520"/>
<feBlend mode="normal" in="SourceGraphic" in2="effect1_dropShadow_130_520" result="shape"/>
</filter>
</defs>
</svg>
