<svg width="28" height="26" viewBox="0 0 28 26" fill="none" xmlns="http://www.w3.org/2000/svg">
<path d="M24.3125 8.63879C25.4176 8.99436 26.1875 10.049 26.1875 11.2603V16.6172C26.1875 18.038 25.1282 19.2428 23.7122 19.3584C23.2885 19.393 22.8636 19.4232 22.4375 19.4491V23.3125L18.6875 19.5625C16.9953 19.5625 15.3195 19.4935 13.6628 19.3583C13.2899 19.3278 12.9418 19.2219 12.6312 19.0563M24.3125 8.63879C24.1232 8.5779 23.9241 8.53751 23.7174 8.52035C22.059 8.3827 20.3814 8.3125 18.6875 8.3125C16.9935 8.3125 15.316 8.3827 13.6576 8.52034C12.2437 8.63769 11.1875 9.84154 11.1875 11.2603V16.6171C11.1875 17.6638 11.7623 18.5932 12.6312 19.0563M24.3125 8.63879V6.29664C24.3125 4.26987 22.8728 2.51331 20.8629 2.25239C18.3098 1.92095 15.7063 1.75 13.0629 1.75C10.4192 1.75 7.81541 1.92098 5.26204 2.25249C3.25216 2.51343 1.8125 4.26998 1.8125 6.29673V14.0783C1.8125 16.1051 3.25217 17.8616 5.26205 18.1225C5.98326 18.2162 6.70849 18.297 7.4375 18.3648V24.25L12.6312 19.0563" stroke="white" stroke-width="2" stroke-linecap="round" stroke-linejoin="round"/>
</svg>
