<svg width="20" height="20" viewBox="0 0 20 20" fill="none" xmlns="http://www.w3.org/2000/svg">
<path d="M10 16.875C14.1421 16.875 17.5 13.797 17.5 10C17.5 6.20304 14.1421 3.125 10 3.125C5.85786 3.125 2.5 6.20304 2.5 10C2.5 11.6963 3.17016 13.249 4.28101 14.448C4.70322 14.9037 5.01916 15.4979 4.83851 16.0923C4.68835 16.5863 4.4389 17.0372 4.11316 17.4216C4.24316 17.4449 4.375 17.4632 4.50806 17.4761C4.6698 17.4919 4.83398 17.5 5 17.5C6.06834 17.5 7.05847 17.1649 7.87098 16.5941C8.54588 16.7769 9.26044 16.875 10 16.875Z" stroke="#1F2937" stroke-width="1.5" stroke-linecap="round" stroke-linejoin="round"/>
</svg>
