<svg width="30" height="30" viewBox="0 0 30 30" fill="none" xmlns="http://www.w3.org/2000/svg">
<path d="M22.4997 23.3989C22.8091 23.4245 23.1221 23.4375 23.438 23.4375C24.7484 23.4375 26.0065 23.2135 27.1761 22.8016C27.184 22.7021 27.188 22.6015 27.188 22.5C27.188 20.4289 25.5091 18.75 23.438 18.75C22.6535 18.75 21.9253 18.9909 21.3232 19.4028M22.4997 23.3989C22.4998 23.4118 22.4998 23.4246 22.4998 23.4375C22.4998 23.7187 22.4843 23.9964 22.4542 24.2696C20.2582 25.5296 17.7132 26.25 14.9998 26.25C12.2865 26.25 9.74141 25.5296 7.54545 24.2696C7.5153 23.9964 7.49982 23.7187 7.49982 23.4375C7.49982 23.4247 7.49985 23.4119 7.49991 23.3991M22.4997 23.3989C22.4923 21.9282 22.0616 20.5577 21.3232 19.4028M21.3232 19.4028C19.9908 17.319 17.6567 15.9375 14.9998 15.9375C12.3433 15.9375 10.0094 17.3186 8.67693 19.402M8.67693 19.402C8.0751 18.9906 7.34727 18.75 6.56323 18.75C4.49216 18.75 2.81323 20.4289 2.81323 22.5C2.81323 22.6015 2.81727 22.7021 2.82518 22.8016C3.99472 23.2135 5.25281 23.4375 6.56323 23.4375C6.87866 23.4375 7.19106 23.4245 7.49991 23.3991M8.67693 19.402C7.9382 20.5571 7.5073 21.928 7.49991 23.3991M18.7498 8.4375C18.7498 10.5086 17.0709 12.1875 14.9998 12.1875C12.9287 12.1875 11.2498 10.5086 11.2498 8.4375C11.2498 6.36643 12.9287 4.6875 14.9998 4.6875C17.0709 4.6875 18.7498 6.36643 18.7498 8.4375ZM26.2498 12.1875C26.2498 13.7408 24.9906 15 23.4373 15C21.884 15 20.6248 13.7408 20.6248 12.1875C20.6248 10.6342 21.884 9.375 23.4373 9.375C24.9906 9.375 26.2498 10.6342 26.2498 12.1875ZM9.37482 12.1875C9.37482 13.7408 8.11562 15 6.56232 15C5.00902 15 3.74982 13.7408 3.74982 12.1875C3.74982 10.6342 5.00902 9.375 6.56232 9.375C8.11562 9.375 9.37482 10.6342 9.37482 12.1875Z" stroke="white" stroke-width="1.5" stroke-linecap="round" stroke-linejoin="round"/>
</svg>
