<svg width="30" height="30" viewBox="0 0 30 30" fill="none" xmlns="http://www.w3.org/2000/svg">
<path d="M15 25.3125C21.2132 25.3125 26.25 20.6954 26.25 15C26.25 9.30456 21.2132 4.6875 15 4.6875C8.7868 4.6875 3.75 9.30456 3.75 15C3.75 17.7145 4.89416 20.1841 6.76454 22.0256C7.20721 22.4614 7.50761 23.0533 7.38005 23.6613C7.18522 24.5899 6.76137 25.4342 6.16974 26.1325C6.36475 26.1674 6.5625 26.1947 6.76208 26.2142C7.0047 26.2379 7.25098 26.25 7.5 26.25C9.10251 26.25 10.5877 25.7473 11.8065 24.8911C12.8188 25.1653 13.8907 25.3125 15 25.3125Z" stroke="white" stroke-width="2" stroke-linecap="round" stroke-linejoin="round"/>
</svg>
