<svg width="357" height="48" viewBox="0 0 357 48" fill="none" xmlns="http://www.w3.org/2000/svg">
<rect x="5.5" y="1.5" width="346" height="45" rx="4.5" fill="#CDEEF7" stroke="#CDEEF7" stroke-width="3"/>
<path d="M132.335 29.964H138.476V33H129.161V16.9H132.335V29.964ZM142.423 28.469C142.822 29.9103 143.903 30.631 145.666 30.631C146.801 30.631 147.659 30.2477 148.242 29.481L150.634 30.861C149.499 32.5017 147.828 33.322 145.62 33.322C143.719 33.322 142.193 32.747 141.043 31.597C139.893 30.447 139.318 28.998 139.318 27.25C139.318 25.5173 139.885 24.076 141.02 22.926C142.155 21.7607 143.611 21.178 145.39 21.178C147.077 21.178 148.464 21.7607 149.553 22.926C150.657 24.0913 151.209 25.5327 151.209 27.25C151.209 27.6333 151.171 28.0397 151.094 28.469H142.423ZM142.377 26.169H148.242C148.073 25.387 147.721 24.8043 147.184 24.421C146.663 24.0377 146.065 23.846 145.39 23.846C144.593 23.846 143.933 24.053 143.412 24.467C142.891 24.8657 142.546 25.433 142.377 26.169ZM159.521 24.352H156.922V29.136C156.922 29.5347 157.022 29.826 157.221 30.01C157.421 30.194 157.712 30.3013 158.095 30.332C158.479 30.3473 158.954 30.3397 159.521 30.309V33C157.482 33.23 156.041 33.0383 155.197 32.425C154.369 31.8117 153.955 30.7153 153.955 29.136V24.352H151.954V21.5H153.955V19.177L156.922 18.28V21.5H159.521V24.352ZM165.95 16.877L164.225 23.271H161.81L162.73 16.877H165.95ZM169.337 24.766C169.337 25.0727 169.536 25.3257 169.935 25.525C170.349 25.709 170.847 25.8777 171.43 26.031C172.012 26.169 172.595 26.353 173.178 26.583C173.76 26.7977 174.251 27.1657 174.65 27.687C175.064 28.2083 175.271 28.86 175.271 29.642C175.271 30.8227 174.826 31.735 173.937 32.379C173.063 33.0077 171.966 33.322 170.648 33.322C168.286 33.322 166.676 32.4097 165.818 30.585L168.394 29.136C168.731 30.1327 169.482 30.631 170.648 30.631C171.706 30.631 172.235 30.3013 172.235 29.642C172.235 29.3353 172.028 29.09 171.614 28.906C171.215 28.7067 170.724 28.5303 170.142 28.377C169.559 28.2237 168.976 28.032 168.394 27.802C167.811 27.572 167.313 27.2117 166.899 26.721C166.5 26.215 166.301 25.5863 166.301 24.835C166.301 23.7003 166.715 22.811 167.543 22.167C168.386 21.5077 169.429 21.178 170.671 21.178C171.606 21.178 172.457 21.3927 173.224 21.822C173.99 22.236 174.596 22.834 175.041 23.616L172.511 24.996C172.143 24.214 171.529 23.823 170.671 23.823C170.287 23.823 169.965 23.9073 169.705 24.076C169.459 24.2447 169.337 24.4747 169.337 24.766ZM192.333 16.9H195.484V33H192.333V26.33H186.353V33H183.179V16.9H186.353V23.294H192.333V16.9ZM200.844 28.469C201.243 29.9103 202.324 30.631 204.087 30.631C205.222 30.631 206.08 30.2477 206.663 29.481L209.055 30.861C207.92 32.5017 206.249 33.322 204.041 33.322C202.14 33.322 200.614 32.747 199.464 31.597C198.314 30.447 197.739 28.998 197.739 27.25C197.739 25.5173 198.306 24.076 199.441 22.926C200.576 21.7607 202.032 21.178 203.811 21.178C205.498 21.178 206.885 21.7607 207.974 22.926C209.078 24.0913 209.63 25.5327 209.63 27.25C209.63 27.6333 209.592 28.0397 209.515 28.469H200.844ZM200.798 26.169H206.663C206.494 25.387 206.142 24.8043 205.605 24.421C205.084 24.0377 204.486 23.846 203.811 23.846C203.014 23.846 202.354 24.053 201.833 24.467C201.312 24.8657 200.967 25.433 200.798 26.169ZM220.351 21.5H223.318V33H220.351V31.643C219.462 32.7623 218.212 33.322 216.602 33.322C215.069 33.322 213.75 32.7393 212.646 31.574C211.558 30.3933 211.013 28.952 211.013 27.25C211.013 25.548 211.558 24.1143 212.646 22.949C213.75 21.7683 215.069 21.178 216.602 21.178C218.212 21.178 219.462 21.7377 220.351 22.857V21.5ZM214.877 29.596C215.475 30.194 216.234 30.493 217.154 30.493C218.074 30.493 218.833 30.194 219.431 29.596C220.045 28.9827 220.351 28.2007 220.351 27.25C220.351 26.2993 220.045 25.525 219.431 24.927C218.833 24.3137 218.074 24.007 217.154 24.007C216.234 24.007 215.475 24.3137 214.877 24.927C214.279 25.525 213.98 26.2993 213.98 27.25C213.98 28.2007 214.279 28.9827 214.877 29.596ZM226.009 33V16.21H228.976V33H226.009Z" fill="#191970"/>
<path d="M4 17.1446C7 22.1446 12.5 9.14464 23 9.14464C33.5 9.14464 39.5 17.1446 48 17.1446C56.5 17.1446 65.5 9.14464 73.5 9.14464C81.5 9.14464 89.5 17.1446 96 17.1446C102.5 17.1446 116.5 4.14464 120.5 9.14464" stroke="white" stroke-opacity="0.5" stroke-width="8"/>
<path d="M237 17.1446C240 22.1446 245.5 9.14464 256 9.14464C266.5 9.14464 272.5 17.1446 281 17.1446C289.5 17.1446 298.5 9.14464 306.5 9.14464C314.5 9.14464 322.5 17.1446 329 17.1446C335.5 17.1446 349.5 4.14464 353.5 9.14464" stroke="white" stroke-opacity="0.5" stroke-width="8"/>
<path d="M237 42.1446C240 47.1446 245.5 34.1446 256 34.1446C266.5 34.1446 272.5 42.1446 281 42.1446C289.5 42.1446 298.5 34.1446 306.5 34.1446C314.5 34.1446 322.5 42.1446 329 42.1446C335.5 42.1446 349.5 29.1446 353.5 34.1446" stroke="white" stroke-opacity="0.5" stroke-width="8"/>
<path d="M4 40.1446C7 45.1446 12.5 32.1446 23 32.1446C33.5 32.1446 39.5 40.1446 48 40.1446C56.5 40.1446 65.5 32.1446 73.5 32.1446C81.5 32.1446 89.5 40.1446 96 40.1446C102.5 40.1446 116.5 27.1446 120.5 32.1446" stroke="white" stroke-opacity="0.5" stroke-width="8"/>
<rect x="5.5" y="1.5" width="346" height="45" rx="4.5" stroke="#CDEEF7" stroke-width="3"/>
</svg>
