<svg width="20" height="20" viewBox="0 0 20 20" fill="none" xmlns="http://www.w3.org/2000/svg">
<path d="M9.82914 17.9255L9.8237 17.9226L9.80482 17.9124C9.78875 17.9037 9.76576 17.8911 9.73631 17.8746C9.67743 17.8418 9.5927 17.7937 9.4858 17.7308C9.27208 17.605 8.96931 17.4199 8.60712 17.1791C7.88395 16.6984 6.91768 15.9917 5.94883 15.0886C4.03151 13.3013 2 10.6459 2 7.375C2 4.93495 4.053 3 6.53125 3C7.98865 3 9.2936 3.66591 10.125 4.70966C10.9564 3.66591 12.2613 3 13.7188 3C16.197 3 18.25 4.93495 18.25 7.375C18.25 10.6459 16.2185 13.3013 14.3012 15.0886C13.3323 15.9917 12.366 16.6984 11.6429 17.1791C11.2807 17.4199 10.9779 17.605 10.7642 17.7308C10.6573 17.7937 10.5726 17.8418 10.5137 17.8746C10.4842 17.8911 10.4613 17.9037 10.4452 17.9124L10.4263 17.9226L10.4209 17.9255L10.4186 17.9268C10.2353 18.0241 10.0147 18.0241 9.83144 17.9268L9.82914 17.9255Z" stroke="#191970" stroke-width="1.5" stroke-linejoin="round"/>
</svg>
