<svg width="24" height="24" viewBox="0 0 24 24" fill="none" xmlns="http://www.w3.org/2000/svg">
<path d="M1.5 4.125C1.5 2.67525 2.67525 1.5 4.125 1.5H6.75C8.19975 1.5 9.375 2.67525 9.375 4.125V6.75C9.375 8.19975 8.19975 9.375 6.75 9.375H4.125C2.67525 9.375 1.5 8.19975 1.5 6.75V4.125Z" stroke="#191970" stroke-width="2" stroke-linecap="round" stroke-linejoin="round"/>
<path d="M14.625 4.125C14.625 2.67525 15.8003 1.5 17.25 1.5H19.875C21.3247 1.5 22.5 2.67525 22.5 4.125V6.75C22.5 8.19975 21.3247 9.375 19.875 9.375H17.25C15.8003 9.375 14.625 8.19975 14.625 6.75V4.125Z" stroke="#191970" stroke-width="2" stroke-linecap="round" stroke-linejoin="round"/>
<path d="M1.5 17.25C1.5 15.8003 2.67525 14.625 4.125 14.625H6.75C8.19975 14.625 9.375 15.8003 9.375 17.25V19.875C9.375 21.3247 8.19975 22.5 6.75 22.5H4.125C2.67525 22.5 1.5 21.3247 1.5 19.875V17.25Z" stroke="#191970" stroke-width="2" stroke-linecap="round" stroke-linejoin="round"/>
<path d="M14.625 17.25C14.625 15.8003 15.8003 14.625 17.25 14.625H19.875C21.3247 14.625 22.5 15.8003 22.5 17.25V19.875C22.5 21.3247 21.3247 22.5 19.875 22.5H17.25C15.8003 22.5 14.625 21.3247 14.625 19.875V17.25Z" stroke="#191970" stroke-width="2" stroke-linecap="round" stroke-linejoin="round"/>
</svg>
