<svg width="38" height="38" viewBox="0 0 38 38" fill="none" xmlns="http://www.w3.org/2000/svg">
<path fill-rule="evenodd" clip-rule="evenodd" d="M36.5 19C36.5 28.665 28.665 36.5 19 36.5C9.33502 36.5 1.5 28.665 1.5 19C1.5 9.33502 9.33502 1.5 19 1.5C28.665 1.5 36.5 9.33502 36.5 19ZM23.375 12.4375C23.375 14.8537 21.4162 16.8125 19 16.8125C16.5838 16.8125 14.625 14.8537 14.625 12.4375C14.625 10.0213 16.5838 8.0625 19 8.0625C21.4162 8.0625 23.375 10.0213 23.375 12.4375ZM18.9999 21.1875C14.5865 21.1875 10.7836 23.8015 9.05505 27.5656C11.4619 30.3576 15.0245 32.125 19 32.125C22.9753 32.125 26.5378 30.3576 28.9447 27.5658C27.2162 23.8015 23.4133 21.1875 18.9999 21.1875Z" stroke="#F5F5F5" stroke-width="2"/>
</svg>
