<svg width="54" height="54" viewBox="0 0 54 54" fill="none" xmlns="http://www.w3.org/2000/svg">
<g filter="url(#filter0_dd_363_517)">
<circle cx="27" cy="26" r="25" fill="white"/>
</g>
<rect width="28.0333" height="29" transform="translate(13 12)" fill="white"/>
<path fill-rule="evenodd" clip-rule="evenodd" d="M27.0167 16.35C27.7909 16.35 28.4184 16.9992 28.4184 17.8V25.05H35.4267C36.2009 25.05 36.8284 25.6992 36.8284 26.5C36.8284 27.3008 36.2009 27.95 35.4267 27.95H28.4184V35.2C28.4184 36.0008 27.7909 36.65 27.0167 36.65C26.2426 36.65 25.6151 36.0008 25.6151 35.2V27.95H18.6067C17.8326 27.95 17.2051 27.3008 17.2051 26.5C17.2051 25.6992 17.8326 25.05 18.6067 25.05L25.6151 25.05V17.8C25.6151 16.9992 26.2426 16.35 27.0167 16.35Z" fill="#00D4AA" stroke="#00D4AA" stroke-width="2" stroke-linecap="round" stroke-linejoin="round"/>
<defs>
<filter id="filter0_dd_363_517" x="0" y="0" width="54" height="54" filterUnits="userSpaceOnUse" color-interpolation-filters="sRGB">
<feFlood flood-opacity="0" result="BackgroundImageFix"/>
<feColorMatrix in="SourceAlpha" type="matrix" values="0 0 0 0 0 0 0 0 0 0 0 0 0 0 0 0 0 0 127 0" result="hardAlpha"/>
<feOffset dy="1"/>
<feGaussianBlur stdDeviation="1"/>
<feColorMatrix type="matrix" values="0 0 0 0 0.0627451 0 0 0 0 0.0941176 0 0 0 0 0.156863 0 0 0 0.04 0"/>
<feBlend mode="normal" in2="BackgroundImageFix" result="effect1_dropShadow_363_517"/>
<feColorMatrix in="SourceAlpha" type="matrix" values="0 0 0 0 0 0 0 0 0 0 0 0 0 0 0 0 0 0 127 0" result="hardAlpha"/>
<feOffset dy="1"/>
<feGaussianBlur stdDeviation="1"/>
<feColorMatrix type="matrix" values="0 0 0 0 0.0627451 0 0 0 0 0.0941176 0 0 0 0 0.156863 0 0 0 0.04 0"/>
<feBlend mode="normal" in2="effect1_dropShadow_363_517" result="effect2_dropShadow_363_517"/>
<feBlend mode="normal" in="SourceGraphic" in2="effect2_dropShadow_363_517" result="shape"/>
</filter>
</defs>
</svg>
