<svg width="19" height="18" viewBox="0 0 19 18" fill="none" xmlns="http://www.w3.org/2000/svg">
<path d="M1.78125 5.34375C1.78125 4.87776 2.18 4.5 2.67188 4.5H7.42188C7.91375 4.5 8.3125 4.87776 8.3125 5.34375V8.15625C8.3125 8.62224 7.91375 9 7.42188 9H2.67187C2.18 9 1.78125 8.62224 1.78125 8.15625V5.34375Z" stroke="white" stroke-width="1.5" stroke-linecap="round" stroke-linejoin="round"/>
<path d="M11.2812 6.46875C11.2812 6.00276 11.68 5.625 12.1719 5.625H16.3281C16.82 5.625 17.2188 6.00276 17.2188 6.46875V12.6562C17.2188 13.1222 16.82 13.5 16.3281 13.5H12.1719C11.68 13.5 11.2812 13.1222 11.2812 12.6562V6.46875Z" stroke="white" stroke-width="1.5" stroke-linecap="round" stroke-linejoin="round"/>
<path d="M2.96875 12.0938C2.96875 11.6278 3.3675 11.25 3.85938 11.25H8.01562C8.5075 11.25 8.90625 11.6278 8.90625 12.0938V13.7812C8.90625 14.2472 8.5075 14.625 8.01562 14.625H3.85937C3.3675 14.625 2.96875 14.2472 2.96875 13.7812V12.0938Z" stroke="white" stroke-width="1.5" stroke-linecap="round" stroke-linejoin="round"/>
</svg>
