<svg width="26" height="28" viewBox="0 0 26 28" fill="none" xmlns="http://www.w3.org/2000/svg">
<path d="M17.6875 12.125V6.5C17.6875 3.91117 15.5888 1.8125 13 1.8125C10.4112 1.8125 8.3125 3.91117 8.3125 6.5V12.125M22.5075 9.63404L24.0865 24.634C24.1739 25.4643 23.5228 26.1875 22.688 26.1875H3.31204C2.47715 26.1875 1.82612 25.4643 1.91352 24.634L3.49246 9.63404C3.5678 8.91833 4.17133 8.375 4.89099 8.375H21.109C21.8287 8.375 22.4322 8.91833 22.5075 9.63404ZM8.78125 12.125C8.78125 12.3839 8.57138 12.5938 8.3125 12.5938C8.05361 12.5938 7.84375 12.3839 7.84375 12.125C7.84375 11.8661 8.05361 11.6562 8.3125 11.6562C8.57138 11.6562 8.78125 11.8661 8.78125 12.125ZM18.1562 12.125C18.1562 12.3839 17.9464 12.5938 17.6875 12.5938C17.4286 12.5938 17.2187 12.3839 17.2187 12.125C17.2187 11.8661 17.4286 11.6562 17.6875 11.6562C17.9464 11.6562 18.1562 11.8661 18.1562 12.125Z" stroke="white" stroke-width="2" stroke-linecap="round" stroke-linejoin="round"/>
</svg>
