<svg width="138" height="138" viewBox="0 0 138 138" fill="none" xmlns="http://www.w3.org/2000/svg">
<path d="M89.9291 12.1605C89.9291 12.1605 68.0312 3.55762 47.0883 15.6989C26.1455 27.8401 16.0853 52.8209 7.40507 72.8143C-1.27513 92.8077 4.58987 113.555 21.0891 123.4C37.5884 133.244 48.2669 119.707 71.0451 119.668C93.8234 119.629 100.042 123.182 118.597 110.35C137.153 97.5191 139.725 66.0661 124.178 42.3053C108.631 18.5444 89.9291 12.1605 89.9291 12.1605Z" fill="#FFC100"/>
<path opacity="0.7" d="M89.9291 12.1605C89.9291 12.1605 68.0312 3.55762 47.0883 15.6989C26.1455 27.8401 16.0853 52.8209 7.40507 72.8143C-1.27513 92.8077 4.58987 113.555 21.0891 123.4C37.5884 133.244 48.2669 119.707 71.0451 119.668C93.8234 119.629 100.042 123.182 118.597 110.35C137.153 97.5191 139.725 66.0661 124.178 42.3053C108.631 18.5444 89.9291 12.1605 89.9291 12.1605Z" fill="white"/>
<path d="M114.937 78.0611C114.937 78.0611 114.937 76.993 116.436 75.4943C117.935 73.9956 118.898 73.14 118.898 73.14C118.898 73.14 119.646 75.6019 118.255 77.0979C117.234 78.1519 116.126 79.1185 114.943 79.9876L114.937 78.0611Z" fill="#FFC100"/>
<path d="M117.112 84.7458C117.112 84.7458 117.112 83.6749 118.611 82.1762C120.11 80.6776 121.07 79.822 121.07 79.822C121.07 79.822 121.821 82.2839 120.43 83.7826C119.408 84.8366 118.301 85.8032 117.118 86.6723L117.112 84.7458Z" fill="#FFC100"/>
<path d="M115.031 79.8855C115.031 79.8855 114.918 78.8201 113.27 77.4898C111.623 76.1595 110.574 75.4088 110.574 75.4088C110.574 75.4088 110.091 77.9342 111.631 79.2728C112.761 80.212 113.966 81.0557 115.236 81.7954L115.031 79.8855Z" fill="#FFC100"/>
<path d="M117.659 87.768C117.659 87.768 117.435 86.722 115.655 85.56C113.875 84.3981 112.757 83.7743 112.757 83.7743C112.757 83.7743 112.539 86.3383 114.214 87.5113C115.435 88.3276 116.722 89.0403 118.062 89.6421L117.659 87.768Z" fill="#FFC100"/>
<path d="M117.165 96.382C117.165 96.382 117.165 95.3111 115.666 93.8124C114.167 92.3137 113.207 91.4581 113.207 91.4581C113.207 91.4581 112.456 93.9201 113.847 95.4187C114.869 96.4728 115.977 97.4394 117.159 98.3085L117.165 96.382Z" fill="#FFC100"/>
<path d="M117.19 98.4823C117.19 98.4823 117.038 97.4225 118.294 95.7223C119.549 94.0222 120.397 93.0424 120.397 93.0424C120.397 93.0424 121.501 95.3718 120.322 97.0526C119.459 98.2412 118.498 99.3555 117.449 100.384L117.19 98.4823Z" fill="#FFC100"/>
<path d="M118.68 104.706C118.68 104.706 118.68 103.635 117.181 102.139C115.683 100.643 114.722 99.785 114.722 99.785C114.722 99.785 113.971 102.244 115.362 103.743C116.384 104.797 117.492 105.764 118.674 106.633L118.68 104.706Z" fill="#FFC100"/>
<path d="M117.667 110.35C117.667 110.35 117.943 109.315 116.867 107.485C115.79 105.656 115.092 104.585 115.092 104.585C115.092 104.585 113.742 106.776 114.708 108.578C115.434 109.857 116.265 111.073 117.192 112.213L117.667 110.35Z" fill="#FFC100"/>
<path d="M114.816 77.7878C114.893 78.8985 115.03 80.0041 115.227 81.0998C115.818 84.1579 117.3 86.1341 117.891 88.8968C118.481 91.6596 116.787 95.22 117.239 98.7694C117.692 102.319 119.075 104.289 118.68 106.663C118.285 109.037 116.196 115.456 116.196 115.456" stroke="#263238" stroke-linecap="round" stroke-linejoin="round"/>
<path d="M115.048 80.5948L113.433 79.3583" stroke="#263238" stroke-linecap="round" stroke-linejoin="round"/>
<path d="M114.971 79.1678L115.647 77.9672" stroke="#263238" stroke-linecap="round" stroke-linejoin="round"/>
<path d="M117.789 88.7809C117.789 88.7809 116.436 87.768 115.048 86.7523" stroke="#263238" stroke-linecap="round" stroke-linejoin="round"/>
<path d="M117.112 86.664C117.786 85.3613 118.591 84.1304 119.514 82.9905" stroke="#263238" stroke-linecap="round" stroke-linejoin="round"/>
<path d="M117.112 97.9028C116.34 96.4816 115.366 95.1801 114.22 94.0388" stroke="#263238" stroke-linecap="round" stroke-linejoin="round"/>
<path d="M117.375 99.4069C117.785 98.4414 118.275 97.5118 118.84 96.6276C119.627 95.4629 119.74 95.3138 119.74 95.3138" stroke="#263238" stroke-linecap="round" stroke-linejoin="round"/>
<path d="M118.68 106.674C118.338 105.823 117.931 105 117.463 104.212C116.995 103.482 116.468 102.791 115.887 102.148" stroke="#263238" stroke-linecap="round" stroke-linejoin="round"/>
<path d="M117.179 112.213C117.256 111.401 117.116 110.583 116.773 109.842C116.221 108.755 115.572 107.328 115.31 106.765" stroke="#263238" stroke-linecap="round" stroke-linejoin="round"/>
<path d="M124.752 92.3579C124.752 92.3579 124.871 91.6872 124.092 90.5832C123.314 89.4792 122.806 88.8417 122.806 88.8417C122.806 88.8417 122.069 90.3017 122.779 91.3947C123.305 92.1661 123.896 92.8918 124.545 93.564L124.752 92.3579Z" fill="#FFC100"/>
<path d="M122.66 96.324C122.66 96.324 122.776 95.6506 121.998 94.5494C121.219 93.4481 120.711 92.8078 120.711 92.8078C120.711 92.8078 119.974 94.2678 120.684 95.358C121.211 96.1301 121.802 96.8567 122.45 97.5302L122.66 96.324Z" fill="#FFC100"/>
<path d="M124.49 93.4895C124.49 93.4895 124.677 92.8354 125.856 92.1785C127.035 91.5216 127.771 91.1656 127.771 91.1656C127.771 91.1656 127.802 92.805 126.69 93.4785C125.879 93.9447 125.032 94.3426 124.156 94.668L124.49 93.4895Z" fill="#FFC100"/>
<path d="M121.992 98.1539C121.992 98.1539 122.246 97.5219 123.488 96.9947C124.73 96.4675 125.5 96.1888 125.5 96.1888C125.5 96.1888 125.356 97.8199 124.181 98.3719C123.326 98.7516 122.44 99.059 121.534 99.291L121.992 98.1539Z" fill="#FFC100"/>
<path d="M121.363 103.602C121.363 103.602 121.479 102.931 122.58 102.156C123.681 101.38 124.379 100.947 124.379 100.947C124.379 100.947 124.581 102.57 123.551 103.359C122.796 103.909 121.995 104.395 121.159 104.811L121.363 103.602Z" fill="#FFC100"/>
<path d="M121.12 104.919C121.12 104.919 121.33 104.27 120.717 103.069C120.104 101.869 119.69 101.16 119.69 101.16C119.69 101.16 118.752 102.504 119.301 103.682C119.712 104.521 120.193 105.325 120.739 106.083L121.12 104.919Z" fill="#FFC100"/>
<path d="M119.232 110.331C119.232 110.331 119.155 109.655 118.1 108.816C117.046 107.977 116.373 107.505 116.373 107.505C116.373 107.505 116.077 109.117 117.065 109.961C117.789 110.554 118.561 111.085 119.373 111.548L119.232 110.331Z" fill="#FFC100"/>
<path d="M119.508 108.661C119.508 108.661 119.624 107.991 120.728 107.212C121.832 106.434 122.525 106.003 122.525 106.003C122.525 106.003 122.729 107.629 121.697 108.416C120.94 108.966 120.139 109.452 119.301 109.867L119.508 108.661Z" fill="#FFC100"/>
<path d="M119.53 112.307C119.53 112.307 119.475 111.628 120.344 110.599C121.214 109.569 121.777 108.973 121.777 108.973C121.777 108.973 122.384 110.494 121.584 111.518C120.991 112.242 120.339 112.915 119.635 113.53L119.53 112.307Z" fill="#FFC100"/>
<path d="M124.862 92.2006C124.693 92.8911 124.487 93.572 124.244 94.2402C123.54 96.0922 122.398 97.1713 121.727 98.8384C121.056 100.505 121.727 102.926 121.065 105.101C120.402 107.276 119.312 108.366 119.304 109.895C119.295 111.424 119.897 115.669 119.897 115.669" stroke="#263238" stroke-linecap="round" stroke-linejoin="round"/>
<path d="M124.404 93.9338L125.552 93.3322" stroke="#263238" stroke-linecap="round" stroke-linejoin="round"/>
<path d="M124.606 93.0479L124.313 92.2199" stroke="#263238" stroke-linecap="round" stroke-linejoin="round"/>
<path d="M121.796 98.7694C121.796 98.7694 122.754 98.2809 123.728 97.7951" stroke="#263238" stroke-linecap="round" stroke-linejoin="round"/>
<path d="M122.45 97.5191C122.171 96.629 121.801 95.7698 121.346 94.9551" stroke="#263238" stroke-linecap="round" stroke-linejoin="round"/>
<path d="M121.23 104.563C121.869 103.755 122.621 103.044 123.463 102.451" stroke="#263238" stroke-linecap="round" stroke-linejoin="round"/>
<path d="M120.902 105.476C120.749 104.826 120.543 104.19 120.286 103.575C119.919 102.76 119.864 102.653 119.864 102.653" stroke="#263238" stroke-linecap="round" stroke-linejoin="round"/>
<path d="M119.356 111.054C118.984 110.592 118.571 110.163 118.122 109.773C117.837 109.563 117.569 109.329 117.322 109.075" stroke="#263238" stroke-linecap="round" stroke-linejoin="round"/>
<path d="M119.304 109.895C119.611 109.398 119.955 108.926 120.333 108.482C120.706 108.075 121.113 107.699 121.548 107.359" stroke="#263238" stroke-linecap="round" stroke-linejoin="round"/>
<path d="M119.635 113.53C119.673 113.012 119.85 112.513 120.146 112.086C120.618 111.465 121.172 110.64 121.399 110.314" stroke="#263238" stroke-linecap="round" stroke-linejoin="round"/>
<path d="M115.227 125.856H121.481C121.612 125.856 121.737 125.804 121.829 125.712C121.921 125.62 121.973 125.495 121.973 125.365L123.524 115.009H113.185L114.736 125.365C114.736 125.495 114.788 125.62 114.88 125.712C114.972 125.804 115.097 125.856 115.227 125.856Z" fill="#263238" stroke="#263238" stroke-linecap="round" stroke-linejoin="round"/>
<path d="M20.3881 78.0611C20.3881 78.0611 20.3881 76.993 18.8894 75.4943C17.3908 73.9956 16.4303 73.14 16.4303 73.14C16.4303 73.14 15.6796 75.6019 17.0706 77.0979C18.092 78.1519 19.1998 79.1185 20.3826 79.9876L20.3881 78.0611Z" fill="#FFC100"/>
<path d="M18.216 84.7458C18.216 84.7458 18.216 83.6749 16.7201 82.1762C15.2242 80.6776 14.2582 79.822 14.2582 79.822C14.2582 79.822 13.5102 82.2839 14.9012 83.7826C15.9241 84.8336 17.0328 85.7974 18.216 86.664V84.7458Z" fill="#FFC100"/>
<path d="M20.2943 79.8855C20.2943 79.8855 20.4075 78.8201 22.0552 77.4898C23.7029 76.1595 24.7517 75.4088 24.7517 75.4088C24.7517 75.4088 25.2375 77.9342 23.6946 79.2728C22.5655 80.2126 21.3598 81.0565 20.0901 81.7954L20.2943 79.8855Z" fill="#FFC100"/>
<path d="M17.664 87.768C17.664 87.768 17.8903 86.722 19.6678 85.56C21.4452 84.3981 22.5685 83.7743 22.5685 83.7743C22.5685 83.7743 22.7838 86.3383 21.1113 87.5113C19.8848 88.328 18.5924 89.0407 17.2473 89.6421L17.664 87.768Z" fill="#FFC100"/>
<path d="M18.1608 96.382C18.1608 96.382 18.1608 95.3111 19.6595 93.8124C21.1582 92.3137 22.1214 91.4581 22.1214 91.4581C22.1214 91.4581 22.8694 93.9201 21.4783 95.4187C20.4569 96.4728 19.3491 97.4394 18.1663 98.3085L18.1608 96.382Z" fill="#FFC100"/>
<path d="M18.136 98.4823C18.136 98.4823 18.2878 97.4225 17.032 95.7223C15.7762 94.0222 14.9316 93.0424 14.9316 93.0424C14.9316 93.0424 13.8276 95.3718 15.0034 97.0526C15.8666 98.2412 16.8276 99.3555 17.8765 100.384L18.136 98.4823Z" fill="#FFC100"/>
<path d="M16.6594 104.706C16.6594 104.706 16.6594 103.635 18.158 102.139C19.6567 100.643 20.62 99.785 20.62 99.785C20.62 99.785 21.3679 102.244 19.9769 103.743C18.9555 104.797 17.8476 105.764 16.6649 106.633L16.6594 104.706Z" fill="#FFC100"/>
<path d="M17.664 110.35C17.664 110.35 17.388 109.315 18.4616 107.485C19.5353 105.656 20.2474 104.585 20.2474 104.585C20.2474 104.585 21.5942 106.776 20.6282 108.578C19.9037 109.858 19.0728 111.074 18.1442 112.213L17.664 110.35Z" fill="#FFC100"/>
<path d="M20.5234 77.7878C20.4475 78.8984 20.3111 80.0041 20.1149 81.0998C19.5215 84.1579 18.0421 86.1341 17.4487 88.8968C16.8553 91.6596 18.5527 95.22 18.1029 98.7694C17.653 102.319 16.2647 104.289 16.6594 106.663C17.0541 109.037 19.1268 115.445 19.1268 115.445" stroke="#263238" stroke-linecap="round" stroke-linejoin="round"/>
<path d="M20.2805 80.5948L21.8951 79.3583" stroke="#263238" stroke-linecap="round" stroke-linejoin="round"/>
<path d="M20.355 79.1678L19.6788 77.9672" stroke="#263238" stroke-linecap="round" stroke-linejoin="round"/>
<path d="M17.5398 88.7809C17.5398 88.7809 18.8894 87.768 20.2805 86.7523" stroke="#263238" stroke-linecap="round" stroke-linejoin="round"/>
<path d="M18.216 86.664C17.5422 85.3613 16.7377 84.1304 15.8148 82.9905" stroke="#263238" stroke-linecap="round" stroke-linejoin="round"/>
<path d="M18.216 97.9028C18.9866 96.4814 19.9601 95.1797 21.1057 94.0388" stroke="#263238" stroke-linecap="round" stroke-linejoin="round"/>
<path d="M17.94 99.4069C17.5297 98.4418 17.0404 97.5122 16.4772 96.6276C15.6878 95.4629 15.5747 95.3138 15.5747 95.3138" stroke="#263238" stroke-linecap="round" stroke-linejoin="round"/>
<path d="M16.6594 106.674C17.0011 105.823 17.4081 105 17.8765 104.212C18.3439 103.482 18.871 102.791 19.4525 102.148" stroke="#263238" stroke-linecap="round" stroke-linejoin="round"/>
<path d="M18.147 112.213C18.0704 111.403 18.2104 110.587 18.5527 109.848C19.1047 108.761 19.7533 107.334 20.0155 106.771" stroke="#263238" stroke-linecap="round" stroke-linejoin="round"/>
<path d="M10.5791 92.3579C10.5791 92.3579 10.4632 91.6872 11.2387 90.5832C12.0143 89.4792 12.5276 88.8417 12.5276 88.8417C12.5276 88.8417 13.2646 90.3017 12.5552 91.3947C12.0284 92.1661 11.4375 92.8918 10.7888 93.564L10.5791 92.3579Z" fill="#FFC100"/>
<path d="M12.6684 96.324C12.6684 96.324 12.5525 95.6506 13.328 94.5494C14.1036 93.4481 14.628 92.7968 14.628 92.7968C14.628 92.7968 15.3649 94.2568 14.6528 95.347C14.1257 96.1191 13.5348 96.8456 12.8864 97.5191L12.6684 96.324Z" fill="#FFC100"/>
<path d="M10.8358 93.4895C10.8358 93.4895 10.6481 92.8354 9.47233 92.1785C8.29657 91.5216 7.55413 91.1656 7.55413 91.1656C7.55413 91.1656 7.52377 92.805 8.63881 93.4785C9.44885 93.9447 10.2963 94.3426 11.1725 94.668L10.8358 93.4895Z" fill="#FFC100"/>
<path d="M13.3391 98.1539C13.3391 98.1539 13.0852 97.5219 11.8459 96.9947C10.6067 96.4675 9.83389 96.1888 9.83389 96.1888C9.83389 96.1888 9.97465 97.8199 11.1532 98.3719C12.0081 98.7519 12.8935 99.0594 13.8 99.291L13.3391 98.1539Z" fill="#FFC100"/>
<path d="M13.9629 103.602C13.9629 103.602 13.8469 102.931 12.7457 102.156C11.6445 101.38 10.9462 100.947 10.9462 100.947C10.9462 100.947 10.7447 102.57 11.7742 103.359C12.5297 103.909 13.3302 104.395 14.1671 104.811L13.9629 103.602Z" fill="#FFC100"/>
<path d="M14.2085 104.919C14.2085 104.919 13.996 104.27 14.6087 103.069C15.2214 101.869 15.6354 101.16 15.6354 101.16C15.6354 101.16 16.5738 102.504 16.0273 103.682C15.6146 104.521 15.1327 105.324 14.5866 106.083L14.2085 104.919Z" fill="#FFC100"/>
<path d="M16.0881 110.331C16.0881 110.331 16.1653 109.655 17.2224 108.816C18.2795 107.977 18.9474 107.505 18.9474 107.505C18.9474 107.505 19.2427 109.117 18.2547 109.961C17.5314 110.554 16.7595 111.085 15.9473 111.548L16.0881 110.331Z" fill="#FFC100"/>
<path d="M15.8093 108.661C15.8093 108.661 15.6934 107.991 14.5921 107.212C13.4909 106.434 12.7926 106.003 12.7926 106.003C12.7926 106.003 12.5911 107.629 13.6206 108.416C14.3744 108.965 15.173 109.451 16.008 109.867L15.8093 108.661Z" fill="#FFC100"/>
<path d="M15.7955 112.307C15.7955 112.307 15.8534 111.628 14.984 110.599C14.1146 109.569 13.5488 108.973 13.5488 108.973C13.5488 108.973 12.9416 110.494 13.742 111.518C14.3344 112.242 14.9861 112.915 15.6906 113.53L15.7955 112.307Z" fill="#FFC100"/>
<path d="M10.4632 92.2006C10.6321 92.8911 10.8385 93.572 11.0814 94.2402C11.7852 96.0922 12.9278 97.1713 13.5985 98.8384C14.2692 100.505 13.5985 102.926 14.2609 105.101C14.9233 107.276 16.0135 108.366 16.0218 109.895C16.0301 111.424 15.4284 115.669 15.4284 115.669" stroke="#263238" stroke-linecap="round" stroke-linejoin="round"/>
<path d="M10.9213 93.9338L9.77594 93.3322" stroke="#263238" stroke-linecap="round" stroke-linejoin="round"/>
<path d="M10.7198 93.0479L11.0124 92.2199" stroke="#263238" stroke-linecap="round" stroke-linejoin="round"/>
<path d="M13.524 98.7694C13.524 98.7694 12.5663 98.2809 11.592 97.7951" stroke="#263238" stroke-linecap="round" stroke-linejoin="round"/>
<path d="M12.8754 97.5191C13.1548 96.629 13.5248 95.7698 13.9794 94.9551" stroke="#263238" stroke-linecap="round" stroke-linejoin="round"/>
<path d="M14.0953 104.563C13.4581 103.756 12.708 103.044 11.868 102.451" stroke="#263238" stroke-linecap="round" stroke-linejoin="round"/>
<path d="M14.4238 105.476C14.5763 104.826 14.7822 104.19 15.0392 103.575C15.4091 102.76 15.4615 102.653 15.4615 102.653" stroke="#263238" stroke-linecap="round" stroke-linejoin="round"/>
<path d="M15.9721 111.054C16.3436 110.592 16.7555 110.163 17.2031 109.773C17.489 109.562 17.7576 109.329 18.0063 109.075" stroke="#263238" stroke-linecap="round" stroke-linejoin="round"/>
<path d="M16.0218 109.895C15.7151 109.398 15.3709 108.926 14.9923 108.482C14.6202 108.076 14.2149 107.702 13.7807 107.364" stroke="#263238" stroke-linecap="round" stroke-linejoin="round"/>
<path d="M15.6906 113.53C15.6524 113.012 15.4761 112.513 15.18 112.086C14.7081 111.465 14.1533 110.64 13.927 110.314" stroke="#263238" stroke-linecap="round" stroke-linejoin="round"/>
<path d="M20.0983 125.856H13.8442C13.7139 125.856 13.5889 125.804 13.4968 125.712C13.4046 125.62 13.3529 125.495 13.3529 125.365L11.8018 115.009H22.1407L20.5896 125.365C20.5896 125.495 20.5378 125.62 20.4457 125.712C20.3536 125.804 20.2286 125.856 20.0983 125.856Z" fill="#263238" stroke="#263238" stroke-linecap="round" stroke-linejoin="round"/>
<g opacity="0.3">
<path d="M130.424 98.808H92.4793V30.084C92.4793 25.1796 94.4276 20.4761 97.8955 17.0082C101.363 13.5402 106.067 11.592 110.971 11.592C116.128 11.592 121.074 13.6406 124.72 17.2871C128.367 20.9335 130.415 25.8793 130.415 31.0362V98.808H130.424Z" stroke="black" stroke-linecap="round" stroke-linejoin="round"/>
<path d="M126.132 98.6037V31.188C126.132 29.259 125.752 27.349 125.014 25.5669C124.276 23.7847 123.194 22.1655 121.83 20.8015C120.466 19.4375 118.847 18.3556 117.064 17.6174C115.282 16.8792 113.372 16.4993 111.443 16.4993C107.549 16.5015 103.815 18.05 101.062 20.8044C98.3092 23.5589 96.7628 27.2937 96.7628 31.188V98.6148" stroke="black" stroke-linecap="round" stroke-linejoin="round"/>
<path d="M111.452 11.592V98.7059" stroke="black" stroke-linecap="round" stroke-linejoin="round"/>
<path d="M130.22 28.3728H92.7332" stroke="black" stroke-linecap="round" stroke-linejoin="round"/>
<path d="M130.22 40.2049H92.7332" stroke="black" stroke-linecap="round" stroke-linejoin="round"/>
<path d="M130.22 52.037H92.7332" stroke="black" stroke-linecap="round" stroke-linejoin="round"/>
<path d="M130.22 63.8719H92.7332" stroke="black" stroke-linecap="round" stroke-linejoin="round"/>
<path d="M130.22 75.704H92.7332" stroke="black" stroke-linecap="round" stroke-linejoin="round"/>
<path d="M130.22 87.5361H92.7332" stroke="black" stroke-linecap="round" stroke-linejoin="round"/>
<path d="M125.207 17.5122L121.81 20.6089" stroke="black" stroke-linecap="round" stroke-linejoin="round"/>
<path d="M97.8365 17.5122L101.237 20.6089" stroke="black" stroke-linecap="round" stroke-linejoin="round"/>
</g>
<path d="M70.3303 25.1436H66.712C66.5301 25.1434 66.3513 25.0972 66.1921 25.0094C66.0328 24.9216 65.8984 24.795 65.8012 24.6413C65.0118 23.3938 63.0688 20.1563 63.342 18.7984C63.7146 16.9768 68.7571 13.6951 68.7571 13.6951C68.7571 13.6951 73.3774 16.9271 73.7086 18.6438C73.9846 20.0238 72.0332 23.3579 71.2466 24.633C71.1499 24.789 71.015 24.9178 70.8547 25.0071C70.6944 25.0965 70.5139 25.1435 70.3303 25.1436Z" stroke="#999999" stroke-linecap="round" stroke-linejoin="round"/>
<path d="M69.0939 24.5474L65.964 26.358C65.8063 26.4487 65.6282 26.498 65.4462 26.5014C65.2643 26.5047 65.0845 26.4621 64.9235 26.3773C63.6153 25.6956 60.3143 23.8602 59.8727 22.5492C59.2821 20.7855 62.0089 15.4201 62.0089 15.4201C62.0089 15.4201 67.6283 15.9086 68.7737 17.2334C69.6983 18.3015 69.679 22.1517 69.6348 23.6504C69.629 23.8338 69.5762 24.0125 69.4815 24.1696C69.3868 24.3266 69.2533 24.4568 69.0939 24.5474Z" stroke="#999999" stroke-linecap="round" stroke-linejoin="round"/>
<path d="M67.7249 24.6524L65.9171 27.785C65.8277 27.9446 65.6993 28.079 65.5439 28.1755C65.3885 28.2721 65.2111 28.3276 65.0284 28.337C63.5518 28.4004 59.7844 28.4639 58.7383 27.5448C57.3583 26.3139 57.0244 20.3026 57.0244 20.3026C57.0244 20.3026 62.1331 17.918 63.7864 18.492C65.1222 18.9557 67.0321 22.3008 67.7415 23.6201C67.8259 23.7796 67.8687 23.9579 67.8658 24.1384C67.8629 24.3188 67.8144 24.4956 67.7249 24.6524Z" stroke="#999999" stroke-linecap="round" stroke-linejoin="round"/>
<path d="M66.5933 25.4279V29.0435C66.5931 29.2253 66.5469 29.4042 66.4591 29.5634C66.3713 29.7226 66.2447 29.8571 66.091 29.9543C64.8434 30.7464 61.606 32.6895 60.248 32.4135C58.4264 32.0436 55.1448 26.9983 55.1448 26.9983C55.1448 26.9983 58.3768 22.3781 60.0935 22.0497C61.4735 21.7737 64.8076 23.725 66.0827 24.5116C66.2387 24.6083 66.3675 24.7432 66.4568 24.9035C66.5462 25.0639 66.5931 25.2443 66.5933 25.4279Z" stroke="#999999" stroke-linecap="round" stroke-linejoin="round"/>
<path d="M65.9971 26.6644L67.8077 29.808C67.8981 29.9654 67.9473 30.143 67.9507 30.3244C67.9541 30.5059 67.9115 30.6852 67.827 30.8458C67.1453 32.1568 65.3099 35.4577 63.9989 35.8966C62.2353 36.4872 56.8698 33.7603 56.8698 33.7603C56.8698 33.7603 57.3583 28.1437 58.6804 26.9983C59.7513 26.071 63.6014 26.0931 65.1001 26.1372C65.2821 26.1416 65.46 26.1923 65.617 26.2846C65.7739 26.3768 65.9048 26.5075 65.9971 26.6644Z" stroke="#999999" stroke-linecap="round" stroke-linejoin="round"/>
<path d="M66.102 28.0334L69.2346 29.8412C69.3944 29.9303 69.5289 30.0587 69.6255 30.2141C69.7221 30.3696 69.7775 30.5471 69.7866 30.7299C69.8501 32.2065 69.9108 35.9739 68.9945 37.0199C67.7635 38.4137 61.7522 38.7339 61.7522 38.7339C61.7522 38.7339 59.3676 33.6251 59.9417 31.9691C60.4026 30.6333 63.7505 28.7261 65.0698 28.0168C65.2293 27.9323 65.4075 27.8896 65.588 27.8925C65.7685 27.8954 65.9453 27.9438 66.102 28.0334Z" stroke="#999999" stroke-linecap="round" stroke-linejoin="round"/>
<path d="M66.8776 29.1649H70.4932C70.675 29.1651 70.8538 29.2113 71.0131 29.2991C71.1723 29.3869 71.3068 29.5136 71.404 29.6672C72.1961 30.912 74.1391 34.1522 73.8631 35.5074C73.4933 37.3318 68.448 40.6134 68.448 40.6134C68.448 40.6134 63.8278 37.3814 63.4993 35.662C63.2233 34.282 65.1746 30.9479 65.9612 29.6755C66.058 29.5195 66.1929 29.3907 66.3532 29.3014C66.5135 29.212 66.694 29.1651 66.8776 29.1649Z" stroke="#999999" stroke-linecap="round" stroke-linejoin="round"/>
<path d="M68.1141 29.7583L71.2467 27.9505C71.4038 27.8597 71.5813 27.81 71.7627 27.8062C71.9441 27.8023 72.1236 27.8444 72.2844 27.9285C73.5954 28.6129 76.8964 30.4456 77.3352 31.7593C77.9259 33.523 75.199 38.8884 75.199 38.8884C75.199 38.8884 69.5824 38.3971 68.437 37.0751C67.5096 36.007 67.5317 32.1568 67.5759 30.6581C67.5817 30.4747 67.6342 30.2959 67.7283 30.1385C67.8225 29.981 67.9553 29.8502 68.1141 29.7583Z" stroke="#999999" stroke-linecap="round" stroke-linejoin="round"/>
<path d="M69.4803 29.6562L71.2908 26.5209C71.3818 26.364 71.511 26.2326 71.6664 26.139C71.8218 26.0454 71.9983 25.9926 72.1795 25.9854C73.6561 25.922 77.4235 25.8585 78.4696 26.7748C79.8634 28.0085 80.1835 34.017 80.1835 34.017C80.1835 34.017 75.072 36.4017 73.416 35.8304C72.0802 35.3667 70.173 32.0216 69.4609 30.7023C69.3749 30.5407 69.3316 30.3598 69.335 30.1768C69.3383 29.9937 69.3884 29.8146 69.4803 29.6562Z" stroke="#999999" stroke-linecap="round" stroke-linejoin="round"/>
<path d="M70.6146 28.8806V25.2623C70.615 25.0809 70.6613 24.9025 70.7491 24.7437C70.837 24.585 70.9635 24.451 71.1169 24.3542C72.3617 23.5621 75.6019 21.6191 76.9571 21.8951C78.7815 22.2649 82.0631 27.3074 82.0631 27.3074C82.0631 27.3074 78.8311 31.9277 77.1117 32.2589C75.7317 32.5349 72.3976 30.5836 71.1225 29.797C70.9671 29.6997 70.8391 29.5646 70.7502 29.4044C70.6614 29.2441 70.6147 29.0639 70.6146 28.8806Z" stroke="#999999" stroke-linecap="round" stroke-linejoin="round"/>
<path d="M71.208 27.6441L69.4002 24.5115C69.3093 24.354 69.2597 24.176 69.2558 23.9941C69.252 23.8122 69.294 23.6323 69.3781 23.471C70.0626 22.1628 71.8952 18.8618 73.209 18.4202C74.9726 17.8296 80.3381 20.5592 80.3381 20.5592C80.3381 20.5592 79.8468 26.1758 78.5248 27.324C77.4566 28.2486 73.6037 28.2293 72.1078 28.1851C71.9241 28.179 71.7451 28.1261 71.5877 28.0314C71.4302 27.9368 71.2995 27.8035 71.208 27.6441Z" stroke="#999999" stroke-linecap="round" stroke-linejoin="round"/>
<path d="M71.1059 26.2752L67.9705 24.4674C67.8138 24.3762 67.6826 24.247 67.589 24.0916C67.4954 23.9363 67.4425 23.7599 67.4351 23.5787C67.3716 22.1021 67.3081 18.3347 68.2244 17.2887C69.4582 15.9087 75.4667 15.5747 75.4667 15.5747C75.4667 15.5747 77.8513 20.6835 77.28 22.3367C76.8163 23.6725 73.4712 25.5825 72.1519 26.2918C71.9908 26.379 71.8099 26.4232 71.6267 26.4203C71.4435 26.4174 71.2642 26.3675 71.1059 26.2752Z" stroke="#999999" stroke-linecap="round" stroke-linejoin="round"/>
<path d="M68.6026 43.9889C77.9008 43.9889 85.4386 36.4512 85.4386 27.1529C85.4386 17.8546 77.9008 10.3169 68.6026 10.3169C59.3043 10.3169 51.7666 17.8546 51.7666 27.1529C51.7666 36.4512 59.3043 43.9889 68.6026 43.9889Z" stroke="#999999" stroke-linecap="round" stroke-linejoin="round"/>
<path d="M68.7571 13.6951V10.3169" stroke="#999999" stroke-linecap="round" stroke-linejoin="round"/>
<path d="M68.448 40.6134V43.9889" stroke="#999999" stroke-linecap="round" stroke-linejoin="round"/>
<path d="M82.0631 27.3074H85.4386" stroke="#999999" stroke-linecap="round" stroke-linejoin="round"/>
<path d="M55.1448 26.9984H51.7666" stroke="#999999" stroke-linecap="round" stroke-linejoin="round"/>
<path d="M60.2563 18.837L56.8312 15.4119" stroke="#999999" stroke-linecap="round" stroke-linejoin="round"/>
<path d="M76.7584 35.546L80.4926 39.2831" stroke="#999999" stroke-linecap="round" stroke-linejoin="round"/>
<path d="M76.8605 19.251L80.5975 15.5167" stroke="#999999" stroke-linecap="round" stroke-linejoin="round"/>
<path d="M60.2563 35.3391L56.6214 38.9712" stroke="#999999" stroke-linecap="round" stroke-linejoin="round"/>
<g opacity="0.3">
<path d="M44.4388 98.808H6.4943L6.4943 30.084C6.4943 25.1796 8.44256 20.4761 11.9105 17.0082C15.3784 13.5402 20.0819 11.592 24.9863 11.592C30.1432 11.592 35.0889 13.6406 38.7354 17.2871C42.3819 20.9335 44.4305 25.8793 44.4305 31.0362L44.4305 98.808H44.4388Z" stroke="black" stroke-linecap="round" stroke-linejoin="round"/>
<path d="M40.1525 98.6037V31.188C40.1539 29.2581 39.7751 27.3469 39.0375 25.5635C38.3 23.7801 37.2183 22.1595 35.8542 20.7944C34.4901 19.4292 32.8703 18.3463 31.0875 17.6074C29.3046 16.8685 27.3937 16.4882 25.4638 16.4882C23.533 16.4868 21.6208 16.866 19.8367 17.6042C18.0526 18.3424 16.4315 19.4252 15.0662 20.7904C13.7009 22.1557 12.6182 23.7768 11.88 25.5609C11.1418 27.345 10.7626 29.2572 10.764 31.188V98.6148" stroke="black" stroke-linecap="round" stroke-linejoin="round"/>
<path d="M25.4638 11.592V98.7059" stroke="black" stroke-linecap="round" stroke-linejoin="round"/>
<path d="M44.2345 28.3728H6.74545" stroke="black" stroke-linecap="round" stroke-linejoin="round"/>
<path d="M44.2345 40.2049H6.74545" stroke="black" stroke-linecap="round" stroke-linejoin="round"/>
<path d="M44.2345 52.037H6.74545" stroke="black" stroke-linecap="round" stroke-linejoin="round"/>
<path d="M44.2345 63.8719H6.74545" stroke="black" stroke-linecap="round" stroke-linejoin="round"/>
<path d="M44.2345 75.704H6.74545" stroke="black" stroke-linecap="round" stroke-linejoin="round"/>
<path d="M44.2345 87.5361H6.74545" stroke="black" stroke-linecap="round" stroke-linejoin="round"/>
<path d="M39.2224 17.5122L35.8221 20.6089" stroke="black" stroke-linecap="round" stroke-linejoin="round"/>
<path d="M11.8514 17.5122L15.249 20.6089" stroke="black" stroke-linecap="round" stroke-linejoin="round"/>
</g>
<path d="M84.2242 57.408C84.2242 57.408 85.9381 58.3988 88.1958 60.8359C90.4535 63.273 91.7148 70.6725 89.1867 72.116C86.6585 73.5595 85.1267 70.7636 85.1267 72.9275C85.1267 75.0913 87.5638 76.3581 84.8507 78.6131C82.1376 80.868 76.3665 80.6886 75.6461 76.7197C74.9257 72.7508 78.1715 70.311 78.7125 67.6945C79.2534 65.078 78.5331 59.9334 79.074 57.9489C79.615 55.9645 81.2461 55.8624 84.2242 57.408Z" fill="#263238" stroke="#263238" stroke-linecap="round" stroke-linejoin="round"/>
<path d="M43.5362 32.9875C43.5362 32.9875 42.8518 32.4355 42.4847 32.4355C42.1176 32.4355 41.9575 32.8992 41.4304 33.3105C40.9032 33.7217 40.1138 33.9259 40.5858 34.1385C40.8404 34.2362 41.1164 34.2639 41.3853 34.2187C41.6542 34.1736 41.9061 34.0572 42.1148 33.8818C42.5371 33.5202 42.5371 33.7272 42.8518 33.7769L43.1692 33.8293L43.5362 32.9875Z" stroke="#263238" stroke-linecap="round" stroke-linejoin="round"/>
<path d="M42.6944 34.1688C42.6944 34.1688 41.273 33.9121 41.1654 34.3233C41.1084 34.4873 41.1043 34.6651 41.1538 34.8315C41.2034 34.998 41.304 35.1446 41.4414 35.2507C41.6664 35.3734 41.9284 35.4097 42.1783 35.3528L42.6944 34.1688Z" stroke="#263238" stroke-linecap="round" stroke-linejoin="round"/>
<path d="M41.0605 34.6325C41.0605 34.6325 40.2712 34.9416 40.4809 35.5074C40.6907 36.0732 41.5849 36.1753 41.5849 36.1753L41.9023 35.5074C41.5263 35.3256 41.2277 35.0153 41.0605 34.6325Z" stroke="#263238" stroke-linecap="round" stroke-linejoin="round"/>
<path d="M40.5334 35.7144C40.4164 35.9162 40.379 36.1544 40.4285 36.3823C40.5334 36.6915 41.1654 36.9481 41.1654 36.9481L41.5877 36.1753C41.5877 36.1753 40.5858 35.9187 40.5334 35.7144Z" stroke="#263238" stroke-linecap="round" stroke-linejoin="round"/>
<path d="M40.4285 36.3823C40.4285 36.3823 40.0614 36.5893 40.2187 36.8957C40.292 36.9973 40.386 37.0824 40.4944 37.1451C40.6029 37.2079 40.7234 37.2471 40.848 37.26L41.1626 36.9509C41.1626 36.9509 40.4809 36.5893 40.4285 36.3823Z" stroke="#263238" stroke-linecap="round" stroke-linejoin="round"/>
<path d="M77.9065 56.304C77.9065 56.304 74.3875 53.7786 72.9385 52.9672C71.4895 52.1557 68.2465 51.612 68.2465 51.612L60.0328 45.5676C60.0328 45.5676 55.1614 41.9575 52.7243 40.5996C50.2872 39.2417 46.1362 36.4596 46.1362 36.4596L43.7957 33.12L41.1792 37.6298L45.5952 38.6234C45.5952 38.6234 53.82 45.9347 55.8872 47.8308C57.9545 49.7269 59.4973 50.359 59.4973 50.359C59.4973 50.359 63.56 54.4189 65.274 55.7713C66.988 57.1237 67.7994 57.4853 67.7994 57.4853C67.7994 57.4853 67.62 61.3658 67.2474 62.8121C66.8748 64.2583 66.3449 65.4286 65.5334 65.699C65.1865 65.8381 64.8227 65.9309 64.4515 65.975C64.4515 65.975 63.8995 71.2991 65.7128 74.186C67.5262 77.073 71.4895 76.9847 72.5714 76.9847C73.6534 76.9847 76.0904 73.7362 76.0904 73.7362C76.0904 73.7362 78.6186 72.7426 79.6094 71.84C80.6003 70.9375 82.2673 67.0321 82.2673 67.0321C84.1434 67.5042 86.0682 67.7552 88.0026 67.7801C90.9806 67.7801 95.1317 66.2455 95.1317 66.2455C95.1317 66.2455 100.817 66.2455 103.525 65.4341C106.232 64.6226 113.27 62.1856 113.27 62.1856C113.27 62.1856 115.796 62.9059 117.783 62.8176C119.77 62.7293 121.481 62.5416 122.022 62.2656C122.354 62.0922 122.611 61.8037 122.745 61.4542C122.852 61.4533 122.958 61.428 123.053 61.3802C123.149 61.3323 123.233 61.2632 123.297 61.1782C123.426 60.9767 123.543 60.7685 123.648 60.5544C123.648 60.5544 124.098 60.5544 124.098 60.1928C124.098 59.8313 122.745 59.2903 122.745 59.2903C122.745 59.2903 124.28 58.7383 123.648 58.57C123.016 58.4016 117.692 58.294 117.692 58.294C117.692 58.294 117.513 57.8413 118.244 57.6619C118.975 57.4825 120.14 56.6683 119.599 56.58L119.047 56.4889C118.534 56.747 117.988 56.9328 117.424 57.0409C116.864 57.105 116.333 57.3238 115.89 57.673C115.528 57.949 113.635 59.8396 113.635 59.8396C111.651 60.2961 109.623 60.5376 107.588 60.5599C103.889 60.651 102.62 60.5599 100.279 61.0126C97.9386 61.4652 95.496 61.9979 95.496 61.9979L89.0873 62.3594C89.0873 62.3594 86.5619 62.2684 85.9298 62.0834C85.2978 61.8985 84.0365 61.5314 82.4108 59.9168C81.1916 58.7482 79.8952 57.6629 78.5303 56.6683L77.9065 56.304Z" fill="white" stroke="#263238" stroke-linecap="round" stroke-linejoin="round"/>
<path d="M122.757 59.2903L120.319 59.3814" stroke="#263238" stroke-linecap="round" stroke-linejoin="round"/>
<path d="M123.659 60.5544L120.231 60.375" stroke="#263238" stroke-linecap="round" stroke-linejoin="round"/>
<path d="M122.757 61.4569L120.59 61.548" stroke="#263238" stroke-linecap="round" stroke-linejoin="round"/>
<path d="M120.319 59.0198L120.59 61.9096" stroke="#263238" stroke-linecap="round" stroke-linejoin="round"/>
<path d="M117.794 58.9315C117.775 59.2682 117.714 59.6011 117.612 59.9224C117.432 60.5544 115.448 60.6455 115.448 60.6455" stroke="#263238" stroke-linecap="round" stroke-linejoin="round"/>
<path d="M95.1427 66.24L100.196 64.8876" stroke="#263238" stroke-linecap="round" stroke-linejoin="round"/>
<path d="M82.2784 67.0266L83.0512 65.4286" stroke="#263238" stroke-linecap="round" stroke-linejoin="round"/>
<path d="M67.7994 57.4853L69.5134 58.57" stroke="#263238" stroke-linecap="round" stroke-linejoin="round"/>
<path d="M69.334 56.765L69.6955 59.202" stroke="#263238" stroke-linecap="round" stroke-linejoin="round"/>
<path d="M79.4411 62.3595C79.4411 62.3595 79.9931 61.0071 80.7052 59.4725C81.4172 57.938 82.4191 58.029 82.7807 58.2084C83.1422 58.3878 84.4946 58.8405 84.8562 58.4844C85.2178 58.1284 87.02 55.2359 87.02 55.2359C87.02 55.2359 87.9226 55.2359 88.1958 54.786L87.4727 52.8899C87.4727 52.8899 88.0247 52.3379 88.0247 51.808V50.3645C88.0247 50.3645 88.3862 48.3773 88.3862 47.9274C88.3862 47.4776 86.5812 46.9338 84.7762 47.7453C82.9711 48.5567 77.9176 50.635 77.3766 51.8853C76.8356 53.1356 76.6535 55.948 76.6535 55.948C76.6535 55.948 76.3775 57.121 75.842 58.835" fill="white"/>
<path d="M79.4411 62.3595C79.4411 62.3595 79.9931 61.0071 80.7052 59.4725C81.4172 57.938 82.4191 58.029 82.7807 58.2084C83.1422 58.3878 84.4946 58.8405 84.8562 58.4844C85.2178 58.1284 87.02 55.2359 87.02 55.2359C87.02 55.2359 87.9226 55.2359 88.1958 54.786L87.4727 52.8899C87.4727 52.8899 88.0247 52.3379 88.0247 51.808V50.3645C88.0247 50.3645 88.3862 48.3773 88.3862 47.9274C88.3862 47.4776 86.5812 46.9338 84.7762 47.7453C82.9711 48.5567 77.9176 50.635 77.3766 51.8853C76.8356 53.1356 76.6535 55.948 76.6535 55.948C76.6535 55.948 76.3775 57.121 75.842 58.835" stroke="#263238" stroke-linecap="round" stroke-linejoin="round"/>
<path d="M80.7935 52.716C80.7935 52.716 80.5175 50.4583 79.35 50.9993C78.1825 51.5403 78.3592 53.257 78.718 53.7979C79.0768 54.3389 79.7116 54.2478 78.5386 54.9709C77.3656 55.6941 76.2836 56.1439 75.4694 54.9709C74.6552 53.7979 73.2145 51.3609 74.9174 48.4739C76.6204 45.5869 80.4236 43.2299 83.6722 43.5059C86.9207 43.7819 86.8296 45.0377 86.8296 45.0377C86.8296 45.0377 89.0845 43.5942 90.6191 46.0313C92.1536 48.4684 91.5216 49.8208 90.8951 49.8208C90.2686 49.8208 89.9926 49.1004 89.9926 49.1004C89.9926 49.1004 89.5427 50.0029 89.09 50.1823C88.7414 50.3004 88.3762 50.3619 88.0081 50.3645L87.7321 48.5595C87.7321 48.5595 85.0246 48.1068 84.663 49.1887C84.3014 50.2707 84.111 51.6258 83.0401 52.1668C82.3371 52.5027 81.5722 52.6897 80.7935 52.716Z" fill="#263238" stroke="#263238" stroke-linecap="round" stroke-linejoin="round"/>
<path d="M86.7965 52.7933C86.7965 53.0941 86.6557 53.3453 86.4791 53.3453C86.3025 53.3453 86.1645 53.1052 86.1645 52.7933C86.1645 52.4814 86.3052 52.2413 86.4791 52.2413C86.653 52.2413 86.7965 52.4952 86.7965 52.7933Z" fill="#263238"/>
<path d="M85.7587 51.7114C85.7587 51.7114 86.3908 50.8088 87.2933 51.7114" stroke="#263238" stroke-linecap="round" stroke-linejoin="round"/>
<path d="M84.5857 55.3215C84.6749 55.5604 84.8351 55.7663 85.0448 55.9114C85.2545 56.0564 85.5037 56.1338 85.7587 56.1329" stroke="#263238" stroke-linecap="round" stroke-linejoin="round"/>
<path d="M82.7807 58.2084L80.523 56.1329L80.8846 59.0198C80.8846 59.0198 81.42 57.5764 82.7807 58.2084Z" fill="#263238" stroke="#263238" stroke-linecap="round" stroke-linejoin="round"/>
<path d="M64.4626 65.964L63.6484 65.8729C62.3352 64.5925 60.7221 63.6616 58.9564 63.1654C56.1605 62.445 51.9184 63.4414 51.9184 63.4414C51.9184 63.4414 47.2264 60.8249 44.1573 58.8404C41.0881 56.856 37.7513 55.051 37.7513 55.051C37.7513 55.051 41.0881 48.1924 41.6319 44.5823C42.1756 40.9722 42.8932 38.64 43.3458 37.812C43.7985 36.984 44.2483 36.098 44.2483 36.098C44.2483 36.098 46.0534 36.8184 46.6827 36.1864C47.3119 35.5543 47.0442 33.2994 47.1353 32.5763C47.2264 31.8532 47.4113 29.8715 47.4113 29.0573V27.876C47.4113 27.876 47.9633 26.8852 47.2319 27.0646C46.5005 27.244 46.0589 27.876 45.6973 28.417C45.3358 28.9579 43.7129 32.557 42.5371 34.4641C41.3614 36.3713 37.8451 42.0458 35.5902 46.0147C33.3353 49.9836 31.7952 55.051 30.981 56.856C30.1668 58.661 30.8927 60.375 31.257 60.6455C31.6213 60.916 35.949 65.4286 39.6502 67.6835C43.3513 69.9384 45.4269 71.564 46.5999 72.0167C47.7729 72.4693 51.1125 74.9036 51.4713 76.1567C51.8301 77.4097 50.0278 84.0972 51.3829 88.5187C52.7381 92.9402 53.0969 96.0094 53.0058 97.7233C52.9147 99.4373 51.6534 101.513 51.6534 104.761C51.6534 108.01 53.2763 113.869 53.4585 114.868C53.6406 115.868 54.361 119.56 54.361 120.825C54.361 122.089 53.9994 124.965 54.1788 125.337C54.3582 125.71 56.6159 125.969 57.339 125.787C57.9818 125.58 58.649 125.458 59.3235 125.425C60.0438 125.425 61.8489 125.701 62.9335 125.701C64.0182 125.701 65.0091 125.793 65.0974 125.425C65.1857 125.058 64.1949 124.614 63.8361 124.523C63.4773 124.432 61.2168 123.62 60.1349 122.359C59.053 121.098 57.88 119.922 57.6095 119.199C57.339 118.476 57.8855 109.635 58.2415 106.657C58.5976 103.679 59.053 100.34 59.2324 99.5284C59.4118 98.7169 60.226 97.0002 60.6759 93.6606C61.1257 90.321 61.8489 81.2075 61.9399 80.4871C62.0825 79.726 62.2668 78.9732 62.4919 78.2322C62.4919 78.2322 67.816 77.2386 69.08 77.2386C70.3441 77.2386 72.1492 77.1475 73.0517 76.6866C73.9542 76.2257 74.1336 74.7905 73.14 73.7086C72.1464 72.6266 69 71.1804 67.896 69.2926C67.3799 68.3358 66.7756 67.4294 66.091 66.585L64.4626 65.964Z" fill="white" stroke="#263238" stroke-linecap="round" stroke-linejoin="round"/>
<path d="M63.952 65.9116L63.6484 65.8785C62.3352 64.598 60.7221 63.6671 58.9564 63.1709C56.1605 62.4505 51.9184 63.4469 51.9184 63.4469C51.9184 63.4469 47.2264 60.8304 44.1573 58.846C41.0881 56.8615 37.7513 55.0565 37.7513 55.0565C37.7513 55.0565 41.0881 48.1979 41.6319 44.5878C41.7533 43.7598 41.8858 43.0257 42.021 42.3412C41.0418 41.5923 39.955 40.9958 38.7973 40.572C37.6933 42.4212 36.5231 44.3698 35.5847 46.023C33.327 49.9947 31.7952 55.0482 30.981 56.8533C30.1668 58.6583 30.8927 60.3723 31.257 60.6427C31.6213 60.9132 35.949 65.4258 39.6502 67.6807C43.3513 69.9357 45.4269 71.5613 46.5999 72.0139C47.7729 72.4666 51.1125 74.9009 51.4713 76.1539C51.8301 77.407 50.0278 84.0945 51.3829 88.516C52.7381 92.9375 53.0969 96.0066 53.0058 97.7206C52.9147 99.4345 51.6534 101.51 51.6534 104.759C51.6534 108.007 53.2763 113.867 53.4585 114.866C53.4833 115.009 53.5219 115.211 53.5661 115.451C55.4125 115.826 56.7153 115.611 57.615 115.216C57.7503 112.244 58.0263 108.418 58.2415 106.66C58.6003 103.682 59.053 100.343 59.2324 99.5311C59.4118 98.7197 60.226 97.003 60.6759 93.6634C61.1257 90.3238 61.8489 81.2103 61.9399 80.4899C62.0825 79.7287 62.2668 78.9759 62.4919 78.235C62.4919 78.235 63.2344 78.0942 64.2307 77.9231C61.7495 73.3415 63.2289 67.9567 63.952 65.9116Z" fill="#263238" stroke="#263238" stroke-linecap="round" stroke-linejoin="round"/>
<path d="M80.9177 69.7452C82.2784 66.3725 81.696 65.6273 81.696 64.435C81.696 62.6299 81.7871 59.3814 81.7871 59.3814L81.6822 59.2213L81.4062 58.9867C81.3287 60.2865 81.0894 61.5715 80.6941 62.8121C80.0621 64.6144 78.5275 65.699 76.0905 63.9851C73.6534 62.2711 75.3701 59.4725 75.3701 59.4725C75.3701 59.4725 76.3251 56.4365 76.292 55.1807L75.3177 54.51C75.3398 55.6554 75.2349 57.9131 74.1971 59.478C72.7536 61.6418 71.128 62.997 69.414 62.7265C68.7112 62.6186 68.0272 62.4113 67.3827 62.111C67.3413 62.387 67.2971 62.6217 67.2474 62.8176C66.8859 64.2611 66.3449 65.4341 65.5335 65.7046C65.1865 65.8436 64.8227 65.9364 64.4515 65.9806C64.4515 65.9806 63.8995 71.3046 65.7129 74.1916C67.5262 77.0785 71.4895 76.9902 72.5715 76.9902C73.6534 76.9902 76.0905 73.7417 76.0905 73.7417C76.0905 73.7417 78.6186 72.7481 79.6095 71.8456C80.1891 71.3184 80.6389 70.4214 80.9177 69.7452Z" fill="#FFC100" stroke="#263238" stroke-linecap="round" stroke-linejoin="round"/>
<path d="M68.252 66.3311C68.252 66.3311 68.3404 68.8565 70.8685 69.3974" stroke="#263238" stroke-linecap="round" stroke-linejoin="round"/>
<path d="M105.156 125.856H134.136" stroke="#263238" stroke-linecap="round" stroke-linejoin="round"/>
<path d="M4.69199 125.856H102.12" stroke="#263238" stroke-linecap="round" stroke-linejoin="round"/>
</svg>
