<svg width="30" height="28" viewBox="0 0 30 28" fill="none" xmlns="http://www.w3.org/2000/svg">
<path d="M2.8125 3.5H4.54461C5.18171 3.5 5.73922 3.89976 5.90338 4.47431L6.38237 6.15077M9.375 16.625C7.30393 16.625 5.625 18.192 5.625 20.125H25.3125M9.375 16.625H23.3978C24.7992 13.9409 26.0221 11.1607 27.0522 8.29792C21.1001 6.8792 14.8631 6.125 8.4375 6.125C7.75026 6.125 7.06518 6.13363 6.38237 6.15077M9.375 16.625L6.38237 6.15077M7.5 23.625C7.5 24.1082 7.08027 24.5 6.5625 24.5C6.04473 24.5 5.625 24.1082 5.625 23.625C5.625 23.1418 6.04473 22.75 6.5625 22.75C7.08027 22.75 7.5 23.1418 7.5 23.625ZM23.4375 23.625C23.4375 24.1082 23.0178 24.5 22.5 24.5C21.9822 24.5 21.5625 24.1082 21.5625 23.625C21.5625 23.1418 21.9822 22.75 22.5 22.75C23.0178 22.75 23.4375 23.1418 23.4375 23.625Z" stroke="white" stroke-width="2" stroke-linecap="round" stroke-linejoin="round"/>
</svg>
